<svg class="animated" id="freepik_stories-designer" xmlns="http://www.w3.org/2000/svg" viewBox="0 0 500 500" version="1.1" xmlns:xlink="http://www.w3.org/1999/xlink" xmlns:svgjs="http://svgjs.com/svgjs"><style>svg#freepik_stories-designer:not(.animated) .animable {opacity: 0;}svg#freepik_stories-designer.animated #freepik--background-complete--inject-178 {animation: 3s Infinite  linear floating;animation-delay: 0s;}svg#freepik_stories-designer.animated #freepik--Desk--inject-178 {animation: 6s Infinite  linear floating;animation-delay: 0s;}svg#freepik_stories-designer.animated #freepik--Character--inject-178 {animation: 6s Infinite  linear floating;animation-delay: 1.5s;}svg#freepik_stories-designer.animated #freepik--Windows--inject-178 {animation: 3s Infinite  linear floating;animation-delay: 0.5s;}            @keyframes floating {                0% {                    opacity: 1;                    transform: translateY(0px);                }                50% {                    transform: translateY(-10px);                }                100% {                    opacity: 1;                    transform: translateY(0px);                }            }        </style><g id="freepik--background-complete--inject-178" class="animable" style="transform-origin: 249.983px 289.84px;"><path d="M440.71,138.59c0-.17.78-.31,1.75-.31s1.75.14,1.75.31-.78.3-1.75.3S440.71,138.75,440.71,138.59Z" style="fill: rgb(224, 224, 224); transform-origin: 442.46px 138.585px;" id="elb78ww05s8hw" class="animable"></path><path d="M433.71,138.59c0-.17.78-.31,1.75-.31s1.75.14,1.75.31-.78.3-1.75.3S433.71,138.75,433.71,138.59Z" style="fill: rgb(224, 224, 224); transform-origin: 435.46px 138.585px;" id="elow1qdr7n2b" class="animable"></path><path d="M426.71,138.59c0-.17.78-.31,1.75-.31s1.75.14,1.75.31-.79.3-1.75.3S426.71,138.75,426.71,138.59Z" style="fill: rgb(224, 224, 224); transform-origin: 428.46px 138.585px;" id="elhkczucechui" class="animable"></path><path d="M419.71,138.59c0-.17.78-.31,1.75-.31s1.75.14,1.75.31-.79.3-1.75.3S419.71,138.75,419.71,138.59Z" style="fill: rgb(224, 224, 224); transform-origin: 421.46px 138.585px;" id="elosfgsbsl068" class="animable"></path><path d="M412.7,138.59c0-.17.79-.31,1.75-.31s1.75.14,1.75.31-.78.3-1.75.3S412.7,138.75,412.7,138.59Z" style="fill: rgb(224, 224, 224); transform-origin: 414.45px 138.585px;" id="ell7al42ovcc" class="animable"></path><path d="M405.7,138.59c0-.17.79-.31,1.75-.31s1.75.14,1.75.31-.78.3-1.75.3S405.7,138.75,405.7,138.59Z" style="fill: rgb(224, 224, 224); transform-origin: 407.45px 138.585px;" id="el8f19ed64gsc" class="animable"></path><path d="M398.7,138.59c0-.17.78-.31,1.75-.31s1.75.14,1.75.31-.78.3-1.75.3S398.7,138.75,398.7,138.59Z" style="fill: rgb(224, 224, 224); transform-origin: 400.45px 138.585px;" id="el5x09gps44nl" class="animable"></path><path d="M391.7,138.59c0-.17.78-.31,1.75-.31s1.75.14,1.75.31-.78.3-1.75.3S391.7,138.75,391.7,138.59Z" style="fill: rgb(224, 224, 224); transform-origin: 393.45px 138.585px;" id="elmu0ii2h9od" class="animable"></path><path d="M384.7,138.59c0-.17.78-.31,1.75-.31s1.75.14,1.75.31-.79.3-1.75.3S384.7,138.75,384.7,138.59Z" style="fill: rgb(224, 224, 224); transform-origin: 386.45px 138.585px;" id="elpxl4vzcwzkn" class="animable"></path><path d="M377.69,138.59c0-.17.79-.31,1.75-.31s1.75.14,1.75.31-.78.3-1.75.3S377.69,138.75,377.69,138.59Z" style="fill: rgb(224, 224, 224); transform-origin: 379.44px 138.585px;" id="elklxd02s493" class="animable"></path><path d="M370.69,138.59c0-.17.79-.31,1.75-.31s1.75.14,1.75.31-.78.3-1.75.3S370.69,138.75,370.69,138.59Z" style="fill: rgb(224, 224, 224); transform-origin: 372.44px 138.585px;" id="eljh9pshoowlq" class="animable"></path><path d="M363.69,138.59c0-.17.78-.31,1.75-.31s1.75.14,1.75.31-.78.3-1.75.3S363.69,138.75,363.69,138.59Z" style="fill: rgb(224, 224, 224); transform-origin: 365.44px 138.585px;" id="el382anybcd1x" class="animable"></path><path d="M358.7,136.57c.17,0,.3.79.3,1.75v.27l-.3-.3c.84,0,1.49.14,1.49.3s-.65.28-1.49.3h-.3v-.58C358.4,137.36,358.53,136.57,358.7,136.57Z" style="fill: rgb(224, 224, 224); transform-origin: 359.295px 137.73px;" id="ell2s1c3fhi4" class="animable"></path><path d="M358.7,129.57c.17,0,.3.79.3,1.75s-.13,1.75-.3,1.75-.3-.78-.3-1.75S358.53,129.57,358.7,129.57Z" style="fill: rgb(224, 224, 224); transform-origin: 358.7px 131.32px;" id="elrbu05c974ti" class="animable"></path><path d="M358.7,122.57c.17,0,.3.78.3,1.75s-.13,1.75-.3,1.75-.3-.78-.3-1.75S358.53,122.57,358.7,122.57Z" style="fill: rgb(224, 224, 224); transform-origin: 358.7px 124.32px;" id="elu1thml297e" class="animable"></path><path d="M358.7,115.57c.17,0,.3.78.3,1.75s-.13,1.75-.3,1.75-.3-.78-.3-1.75S358.53,115.57,358.7,115.57Z" style="fill: rgb(224, 224, 224); transform-origin: 358.7px 117.32px;" id="elncs74w11c5" class="animable"></path><path d="M358.7,108.57c.17,0,.3.78.3,1.75s-.13,1.75-.3,1.75-.3-.79-.3-1.75S358.53,108.57,358.7,108.57Z" style="fill: rgb(224, 224, 224); transform-origin: 358.7px 110.32px;" id="eltvmvtgk889o" class="animable"></path><path d="M358.7,101.56c.17,0,.3.79.3,1.76s-.13,1.75-.3,1.75-.3-.79-.3-1.75S358.53,101.56,358.7,101.56Z" style="fill: rgb(224, 224, 224); transform-origin: 358.7px 103.315px;" id="elrf4hugy5g" class="animable"></path><path d="M358.7,94.56c.17,0,.3.79.3,1.75s-.13,1.75-.3,1.75-.3-.78-.3-1.75S358.53,94.56,358.7,94.56Z" style="fill: rgb(224, 224, 224); transform-origin: 358.7px 96.31px;" id="el4zde19lc3ms" class="animable"></path><path d="M358.7,87.56c.17,0,.3.78.3,1.75s-.13,1.75-.3,1.75-.3-.78-.3-1.75S358.53,87.56,358.7,87.56Z" style="fill: rgb(224, 224, 224); transform-origin: 358.7px 89.31px;" id="elpol860hejp" class="animable"></path><path d="M358.7,80.56c.17,0,.3.78.3,1.75s-.13,1.75-.3,1.75-.3-.78-.3-1.75S358.53,80.56,358.7,80.56Z" style="fill: rgb(224, 224, 224); transform-origin: 358.7px 82.31px;" id="ellmy9min68pg" class="animable"></path><path d="M358.7,73.56c.17,0,.3.78.3,1.75s-.13,1.75-.3,1.75-.3-.79-.3-1.75S358.53,73.56,358.7,73.56Z" style="fill: rgb(224, 224, 224); transform-origin: 358.7px 75.31px;" id="elkcxuwr141xr" class="animable"></path><path d="M358.7,66.56c.17,0,.3.78.3,1.75s-.13,1.75-.3,1.75-.3-.79-.3-1.75S358.53,66.56,358.7,66.56Z" style="fill: rgb(224, 224, 224); transform-origin: 358.7px 68.31px;" id="el8oq7rjg8i0o" class="animable"></path><path d="M358.7,59.55c.17,0,.3.79.3,1.75s-.13,1.75-.3,1.75-.3-.78-.3-1.75S358.53,59.55,358.7,59.55Z" style="fill: rgb(224, 224, 224); transform-origin: 358.7px 61.3px;" id="ellrug0h01rb" class="animable"></path><path d="M359.23,53.08c0,.08-.2.16-.53.21l.22-.21A8.09,8.09,0,0,1,359,54.3c0,1-.13,1.75-.3,1.75s-.3-.78-.3-1.75a8.09,8.09,0,0,1,.08-1.22l0-.25.17,0C359,52.91,359.23,53,359.23,53.08Z" style="fill: rgb(224, 224, 224); transform-origin: 358.815px 54.44px;" id="ellqpir7ob1np" class="animable"></path><path d="M366.23,53.08c0,.16-.79.3-1.75.3s-1.75-.14-1.75-.3.78-.31,1.75-.31S366.23,52.91,366.23,53.08Z" style="fill: rgb(224, 224, 224); transform-origin: 364.48px 53.075px;" id="elkzi0nio50bt" class="animable"></path><path d="M373.23,53.08c0,.16-.78.3-1.75.3s-1.75-.14-1.75-.3.78-.31,1.75-.31S373.23,52.91,373.23,53.08Z" style="fill: rgb(224, 224, 224); transform-origin: 371.48px 53.075px;" id="elxyg2vttvnf" class="animable"></path><path d="M380.23,53.08c0,.16-.78.3-1.75.3s-1.75-.14-1.75-.3.78-.31,1.75-.31S380.23,52.91,380.23,53.08Z" style="fill: rgb(224, 224, 224); transform-origin: 378.48px 53.075px;" id="elwlcttx0wqy" class="animable"></path><path d="M387.23,53.08c0,.16-.78.3-1.75.3s-1.75-.14-1.75-.3.79-.31,1.75-.31S387.23,52.91,387.23,53.08Z" style="fill: rgb(224, 224, 224); transform-origin: 385.48px 53.075px;" id="elmnrfrkygxbb" class="animable"></path><path d="M394.23,53.08c0,.16-.78.3-1.75.3s-1.75-.14-1.75-.3.79-.31,1.75-.31S394.23,52.91,394.23,53.08Z" style="fill: rgb(224, 224, 224); transform-origin: 392.48px 53.075px;" id="el26w6s1s288dj" class="animable"></path><path d="M401.24,53.08c0,.16-.79.3-1.75.3s-1.75-.14-1.75-.3.78-.31,1.75-.31S401.24,52.91,401.24,53.08Z" style="fill: rgb(224, 224, 224); transform-origin: 399.49px 53.075px;" id="elt95d47cyx3a" class="animable"></path><path d="M408.24,53.08c0,.16-.79.3-1.75.3s-1.75-.14-1.75-.3.78-.31,1.75-.31S408.24,52.91,408.24,53.08Z" style="fill: rgb(224, 224, 224); transform-origin: 406.49px 53.075px;" id="el76sko5jlc4m" class="animable"></path><path d="M415.24,53.08c0,.16-.78.3-1.75.3s-1.75-.14-1.75-.3.78-.31,1.75-.31S415.24,52.91,415.24,53.08Z" style="fill: rgb(224, 224, 224); transform-origin: 413.49px 53.075px;" id="ela0impg8aiia" class="animable"></path><path d="M422.24,53.08c0,.16-.78.3-1.75.3s-1.75-.14-1.75-.3.78-.31,1.75-.31S422.24,52.91,422.24,53.08Z" style="fill: rgb(224, 224, 224); transform-origin: 420.49px 53.075px;" id="elnojhct1z6f" class="animable"></path><path d="M429.24,53.08c0,.16-.78.3-1.75.3s-1.75-.14-1.75-.3.79-.31,1.75-.31S429.24,52.91,429.24,53.08Z" style="fill: rgb(224, 224, 224); transform-origin: 427.49px 53.075px;" id="el1kvp4ehsfyd" class="animable"></path><path d="M436.25,53.08c0,.16-.79.3-1.75.3s-1.76-.14-1.76-.3.79-.31,1.76-.31S436.25,52.91,436.25,53.08Z" style="fill: rgb(224, 224, 224); transform-origin: 434.495px 53.075px;" id="elcjl8ap4tyxm" class="animable"></path><path d="M443.25,53.08c0,.16-.79.3-1.75.3s-1.75-.14-1.75-.3.78-.31,1.75-.31S443.25,52.91,443.25,53.08Z" style="fill: rgb(224, 224, 224); transform-origin: 441.5px 53.075px;" id="el4zaw6hoaty" class="animable"></path><path d="M444.21,59.11c-.17,0-.3-.78-.3-1.75s.13-1.75.3-1.75.31.79.31,1.75S444.38,59.11,444.21,59.11Z" style="fill: rgb(224, 224, 224); transform-origin: 444.215px 57.36px;" id="elkwiik3hzan" class="animable"></path><path d="M444.21,66.12c-.17,0-.3-.79-.3-1.75s.13-1.75.3-1.75.31.78.31,1.75S444.38,66.12,444.21,66.12Z" style="fill: rgb(224, 224, 224); transform-origin: 444.215px 64.37px;" id="elhg7cf840e7" class="animable"></path><path d="M444.21,73.12c-.17,0-.3-.79-.3-1.75s.13-1.75.3-1.75.31.78.31,1.75S444.38,73.12,444.21,73.12Z" style="fill: rgb(224, 224, 224); transform-origin: 444.215px 71.37px;" id="elea3re3bds6" class="animable"></path><path d="M444.21,80.12c-.17,0-.3-.78-.3-1.75s.13-1.75.3-1.75.31.78.31,1.75S444.38,80.12,444.21,80.12Z" style="fill: rgb(224, 224, 224); transform-origin: 444.215px 78.37px;" id="eltjx0x0x7zwd" class="animable"></path><path d="M444.21,87.12c-.17,0-.3-.78-.3-1.75s.13-1.75.3-1.75.31.78.31,1.75S444.38,87.12,444.21,87.12Z" style="fill: rgb(224, 224, 224); transform-origin: 444.215px 85.37px;" id="el2q83b1fh9e6" class="animable"></path><path d="M444.21,94.12c-.17,0-.3-.78-.3-1.75s.13-1.75.3-1.75.31.79.31,1.75S444.38,94.12,444.21,94.12Z" style="fill: rgb(224, 224, 224); transform-origin: 444.215px 92.37px;" id="elxd4cy3m7n4" class="animable"></path><path d="M444.21,101.13c-.17,0-.3-.79-.3-1.76s.13-1.75.3-1.75.31.79.31,1.75S444.38,101.13,444.21,101.13Z" style="fill: rgb(224, 224, 224); transform-origin: 444.215px 99.375px;" id="el5q2lsf5ah7i" class="animable"></path><path d="M444.21,108.13c-.17,0-.3-.79-.3-1.75s.13-1.75.3-1.75.31.78.31,1.75S444.38,108.13,444.21,108.13Z" style="fill: rgb(224, 224, 224); transform-origin: 444.215px 106.38px;" id="elaaxsbke339e" class="animable"></path><path d="M444.21,115.13c-.17,0-.3-.78-.3-1.75s.13-1.75.3-1.75.31.78.31,1.75S444.38,115.13,444.21,115.13Z" style="fill: rgb(224, 224, 224); transform-origin: 444.215px 113.38px;" id="el1c907kh6zia" class="animable"></path><path d="M444.21,122.13c-.17,0-.3-.78-.3-1.75s.13-1.75.3-1.75.31.78.31,1.75S444.38,122.13,444.21,122.13Z" style="fill: rgb(224, 224, 224); transform-origin: 444.215px 120.38px;" id="el1cfwv6th5xg" class="animable"></path><path d="M444.21,129.13c-.17,0-.3-.78-.3-1.75s.13-1.75.3-1.75.31.79.31,1.75S444.38,129.13,444.21,129.13Z" style="fill: rgb(224, 224, 224); transform-origin: 444.215px 127.38px;" id="elbzfzx5ottk" class="animable"></path><path d="M444.21,136.13c-.17,0-.3-.78-.3-1.75s.13-1.75.3-1.75.31.79.31,1.75S444.38,136.13,444.21,136.13Z" style="fill: rgb(224, 224, 224); transform-origin: 444.215px 134.38px;" id="elgxob0anl77q" class="animable"></path><rect x="441.05" y="134.55" width="6.33" height="6.33" style="fill: rgb(224, 224, 224); transform-origin: 444.215px 137.715px;" id="elhqjwgeyxtmd" class="animable"></rect><rect x="355.53" y="135.42" width="6.33" height="6.33" style="fill: rgb(224, 224, 224); transform-origin: 358.695px 138.585px;" id="el07epmv3gjsw5" class="animable"></rect><rect x="441.05" y="49.29" width="6.33" height="6.33" style="fill: rgb(224, 224, 224); transform-origin: 444.215px 52.455px;" id="elhwzmedx6z6" class="animable"></rect><rect x="355.53" y="49.91" width="6.33" height="6.33" style="fill: rgb(224, 224, 224); transform-origin: 358.695px 53.075px;" id="ely732mf3n14" class="animable"></rect><path d="M111.12,162c11.06-9.7,12.07-25.54,10-39.45-.34-2.32-.35-4.81-1.69-6.73s-4.07-3-6-1.83c-1.64,1-2.18,3.11-3,4.88a13.72,13.72,0,0,1-4.89,5.82c-1.4.94-3.19,1.61-4.74,1-2.14-.89-2.68-3.64-2.92-6l-1.35-13a21.82,21.82,0,0,0-1.46-6.81,7.26,7.26,0,0,0-5.06-4.37c-2.27-.37-4.86,1.2-5.08,3.52a20.29,20.29,0,0,0,.26,2.9,2.45,2.45,0,0,1-1.18,2.45,2.81,2.81,0,0,1-2.66-.78,31.2,31.2,0,0,1-6.46-7.75,43.12,43.12,0,0,0-6.11-8c-2.46-2.32-5.69-4-9-3.83s-6.65,2.62-7.13,6,1.79,6.47,4.16,8.89a52.34,52.34,0,0,0,11.91,9.08,4.31,4.31,0,0,1,2,1.74c.67,1.49-.63,3.19-2.1,3.86-1.66.77-3.56.8-5.34,1.21s-3.66,1.43-4.15,3.21c-.69,2.48,1.57,4.74,3.7,6.15a44.57,44.57,0,0,0,14,6.13A15.2,15.2,0,0,1,82,132.05c1.51,1,2.57,3,1.92,4.77s-2.73,2.48-4.55,2.35a31.08,31.08,0,0,1-5.3-1.38c-3.32-.85-7.41-.18-9.15,2.8a7.4,7.4,0,0,0-.07,6.57A17,17,0,0,0,69,152.51a44.87,44.87,0,0,0,20.52,11.28c7.67,1.75,14.6,1.69,21.65-1.81" style="fill: rgb(224, 224, 224); transform-origin: 87.2864px 124.463px;" id="elj58zhyyghxq" class="animable"></path><path d="M112.45,172.31a102.72,102.72,0,0,0-5.9-18.69,208,208,0,0,0-10.72-21.46l-3.1-5.49c-1-1.79-2-3.57-3.13-5.26a103.71,103.71,0,0,0-6.86-9.3c-2.33-2.85-4.64-5.47-6.82-7.91s-4.26-4.66-6.24-6.61a81.66,81.66,0,0,0-10-8.5c-1.26-.91-2.26-1.58-2.94-2l-.78-.5a2.1,2.1,0,0,0-.27-.16l.25.19.75.54c.67.47,1.65,1.16,2.89,2.09a87.52,87.52,0,0,1,9.92,8.59c2,2,4,4.19,6.19,6.63s4.46,5.07,6.78,7.93a104.53,104.53,0,0,1,6.81,9.28c1.09,1.67,2.09,3.44,3.11,5.24l3.1,5.48a215.94,215.94,0,0,1,10.73,21.4,104.9,104.9,0,0,1,6,18.61" style="fill: rgb(250, 250, 250); transform-origin: 84.07px 129.42px;" id="elqatmcirn35" class="animable"></path><path d="M89.48,121.41a4.7,4.7,0,0,0,.12-1c.05-.66.09-1.61.13-2.78.07-2.34.06-5.59,0-9.16s0-6.81.12-9.15c0-1.17.1-2.11.14-2.77a4.71,4.71,0,0,0,0-1,5,5,0,0,0-.18,1c-.1.65-.2,1.59-.28,2.76-.19,2.34-.28,5.59-.25,9.17s.06,6.72.08,9.16c0,1.1,0,2,0,2.77A4.3,4.3,0,0,0,89.48,121.41Z" style="fill: rgb(250, 250, 250); transform-origin: 89.6455px 108.48px;" id="elqlp0006y72e" class="animable"></path><path d="M59.05,119.13a6.56,6.56,0,0,0,1.2,0c.78,0,1.89,0,3.28,0,2.76,0,6.58.12,10.78.44s8,.79,10.74,1.2c1.37.2,2.47.39,3.23.51a6.48,6.48,0,0,0,1.2.16,6.46,6.46,0,0,0-1.16-.32c-.76-.18-1.86-.41-3.23-.65-2.73-.49-6.53-1-10.75-1.33a105.35,105.35,0,0,0-10.82-.32c-1.39,0-2.5.11-3.28.18A5.89,5.89,0,0,0,59.05,119.13Z" style="fill: rgb(250, 250, 250); transform-origin: 74.265px 120.117px;" id="elixnzb7a3qz9" class="animable"></path><path d="M106.12,153.11s.07-.13.17-.38.23-.69.39-1.14c.33-1,.78-2.43,1.31-4.22,1.06-3.57,2.37-8.55,3.74-14.07s2.64-10.51,3.63-14.1c.48-1.75.88-3.19,1.18-4.25.12-.47.23-.85.31-1.16s.1-.41.08-.42a1.85,1.85,0,0,0-.16.39c-.11.31-.24.68-.39,1.14-.34,1-.78,2.42-1.31,4.21-1.07,3.58-2.38,8.56-3.75,14.08s-2.64,10.51-3.62,14.1c-.49,1.75-.89,3.18-1.18,4.25-.13.46-.23.85-.32,1.16A2.37,2.37,0,0,0,106.12,153.11Z" style="fill: rgb(250, 250, 250); transform-origin: 111.529px 133.24px;" id="elwxxbny00tyd" class="animable"></path><path d="M65.09,144.71a1.27,1.27,0,0,0,.41.12l1.2.26,4.39.91c3.71.76,8.82,1.88,14.47,3.12s10.78,2.32,14.51,3c1.86.34,3.37.61,4.42.77l1.21.18a1.48,1.48,0,0,0,.42,0,2.56,2.56,0,0,0-.41-.12l-1.19-.26-4.4-.9c-3.71-.77-8.82-1.89-14.47-3.13s-10.77-2.32-14.5-3c-1.87-.34-3.38-.61-4.42-.77l-1.21-.18A2.28,2.28,0,0,0,65.09,144.71Z" style="fill: rgb(250, 250, 250); transform-origin: 85.605px 148.892px;" id="ela255dzrkb19" class="animable"></path><g id="elcptieghrj"><circle cx="251.63" cy="354.25" r="124.55" style="fill: rgb(224, 224, 224); transform-origin: 251.63px 354.25px; transform: rotate(-45deg);" class="animable" id="eld2npwybl6og"></circle></g><path d="M251.63,452.54a98.29,98.29,0,1,1,98.29-98.29A98.4,98.4,0,0,1,251.63,452.54Zm0-195.58a97.29,97.29,0,1,0,97.29,97.29A97.39,97.39,0,0,0,251.63,257Z" style="fill: rgb(250, 250, 250); transform-origin: 251.63px 354.25px;" id="elni5zm09ereo" class="animable"></path><path d="M251.63,468.22a114,114,0,1,1,114-114A114.1,114.1,0,0,1,251.63,468.22Zm0-226.94a113,113,0,1,0,113,113A113.1,113.1,0,0,0,251.63,241.28Z" style="fill: rgb(250, 250, 250); transform-origin: 251.63px 354.22px;" id="elwmh4l2pwq8" class="animable"></path><path d="M251.63,439.47a85.22,85.22,0,1,1,85.22-85.22A85.32,85.32,0,0,1,251.63,439.47Zm0-169.44a84.22,84.22,0,1,0,84.22,84.22A84.32,84.32,0,0,0,251.63,270Z" style="fill: rgb(250, 250, 250); transform-origin: 251.63px 354.25px;" id="el6dkg92a3q5n" class="animable"></path><path d="M251.63,426.12a71.87,71.87,0,1,1,71.87-71.87A72,72,0,0,1,251.63,426.12Zm0-142.74a70.87,70.87,0,1,0,70.87,70.87A70.95,70.95,0,0,0,251.63,283.38Z" style="fill: rgb(250, 250, 250); transform-origin: 251.63px 354.25px;" id="elaknybwi47ak" class="animable"></path><path d="M251.63,412.43a58.18,58.18,0,1,1,58.18-58.18A58.25,58.25,0,0,1,251.63,412.43Zm0-115.36a57.18,57.18,0,1,0,57.18,57.18A57.25,57.25,0,0,0,251.63,297.07Z" style="fill: rgb(250, 250, 250); transform-origin: 251.63px 354.25px;" id="elbctk87r6f4k" class="animable"></path><path d="M251.63,400.11a45.86,45.86,0,1,1,45.86-45.86A45.92,45.92,0,0,1,251.63,400.11Zm0-90.72a44.86,44.86,0,1,0,44.86,44.86A44.91,44.91,0,0,0,251.63,309.39Z" style="fill: rgb(250, 250, 250); transform-origin: 251.63px 354.25px;" id="elmv00qxl975d" class="animable"></path><rect x="242.28" y="54.22" width="48.33" height="48.33" style="fill: rgb(235, 235, 235); transform-origin: 266.445px 78.385px;" id="el8whomq9l0ds" class="animable"></rect></g><g id="freepik--Desk--inject-178" class="animable" style="transform-origin: 252.795px 298.534px;"><g id="eln35vs3flg2k"><rect x="199.15" y="310.36" width="108.75" height="119.44" style="fill: rgb(38, 50, 56); transform-origin: 253.525px 370.08px; transform: rotate(-4.00417deg);" class="animable" id="el5mc5gw1qvim"></rect></g><polygon points="300.12 366.73 298.52 331.51 203.79 340.4 207.4 376.98 300.12 366.73" style="fill: rgb(69, 90, 100); transform-origin: 251.955px 354.245px;" id="el6u7dqvjg6rt" class="animable"></polygon><path d="M319.94,427.83,198.53,436a7.68,7.68,0,0,1-8.18-7.15h0a7.67,7.67,0,0,1,7.15-8.18l121.41-8.16a7.68,7.68,0,0,1,8.18,7.15h0A7.68,7.68,0,0,1,319.94,427.83Z" style="fill: rgb(69, 90, 100); transform-origin: 258.719px 424.255px;" id="elr3smgncjejn" class="animable"></path><rect x="50.76" y="161.05" width="404.06" height="183.04" style="fill: rgb(235, 235, 235); transform-origin: 252.79px 252.57px;" id="elkjgodcur20p" class="animable"></rect><polygon points="50.76 344.09 61.2 349.53 444.82 349.17 454.83 344.09 50.76 344.09" style="fill: rgb(224, 224, 224); transform-origin: 252.795px 346.81px;" id="eljb90fsz2a5g" class="animable"></polygon></g><g id="freepik--Character--inject-178" class="animable" style="transform-origin: 305.614px 309.963px;"><polygon points="160.37 326.82 159.65 203.56 349.06 203.56 349.06 328.1 160.37 326.82" style="fill: rgb(69, 90, 100); transform-origin: 254.355px 265.83px;" id="elq56o318zag" class="animable"></polygon><path d="M199.45,303.36c7.33-.39,14.79,1.34,22.11,2.18l-3.93-1A23.62,23.62,0,0,1,243.9,279c5.21.61,10.34,2.95,15.51,2.08,9.48-1.6,14.36-12.89,23.36-16.27,11.51-4.32,24.92,5.78,36.27,1.05,4.6-1.91,7.94-6,12.21-8.54,3.66-2.19,9-2.83,12-.3V230.5c-3,5.87-10.5,8.72-17.23,8.16-7.13-.59-13.63-4.17-19.83-7.73s-12.57-7.27-19.68-8.19c-10.1-1.29-19.9,3.22-29.7,6-8.85,2.5-18.38,3.57-27.21,1l-.87-.3a15,15,0,0,1-3.69,2.62c-7.51,3.64-17.54-1.24-24.4,3.52-4.12,2.85-5.55,8.19-8.57,12.18-5.57,7.36-19,9.49-26.7,4.33V313l0,7.88h4A39,39,0,0,1,199.45,303.36Zm116-54.32a4,4,0,0,1,1.54-.74l.21-.08-.08,0a4.57,4.57,0,1,1-1.23.57Z" style="fill: rgb(250, 250, 250); transform-origin: 254.31px 271.697px;" id="eldezb9vij3qm" class="animable"></path><path d="M343.29,257c-3.08-2.53-8.38-1.89-12,.3-4.27,2.57-7.61,6.63-12.21,8.54-11.35,4.73-24.76-5.37-36.27-1.05-9,3.38-13.88,14.67-23.36,16.27-5.17.87-10.3-1.47-15.51-2.08a23.62,23.62,0,0,0-26.27,25.53l3.93,1c5.71.66,11.34.78,16.76-1.05,15.62-5.28,24.13-25.18,40.51-27.07,9.09-1.05,18.16,4,27.17,2.47,7.32-1.24,13.14-6.55,19.18-10.85s11.88-8.26,18.62-5.79v-5.79C343.64,257.3,343.47,257.14,343.29,257Z" style="fill: #7D3E90; transform-origin: 280.71px 280.658px;" id="elg7jzbdiguol" class="animable"></path><path d="M325.18,269c-6,4.3-11.86,9.61-19.18,10.85-9,1.54-18.08-3.52-27.17-2.47-16.38,1.89-24.89,21.79-40.51,27.07-5.42,1.83-11,1.71-16.76,1.05-7.32-.84-14.78-2.57-22.11-2.18a39,39,0,0,0-30,17.52h4a29.77,29.77,0,0,1,14.39-8.08,29.18,29.18,0,0,1,23.5,4.53c1.53,1.1,3,2.36,4.43,3.6l29.82,0c1.32-.75,2.64-1.49,4-2.17,5.4-2.74,11.57-4.65,17.5-3.39a15.25,15.25,0,0,1,9.13,5.59l31.92,0a8.79,8.79,0,0,1,5.16-4.54c2.41-.74,5.19-.46,7.24-1.91,2.4-1.68,2.85-5,3.83-7.73,2.71-7.67,11.46-12.63,19.44-11.13V263.25C337.06,260.78,331.12,264.81,325.18,269ZM297,314.59c-5.09,2.5-12.05-.31-14-5.63-1.51-4.2.4-9.19,4-11.75l-.8.37a9.2,9.2,0,0,1,3-1.54,9,9,0,0,1,1-.32l-.18.08c4.08-.88,8.78.71,11.05,4.28C304.07,304.87,302.05,312.09,297,314.59Zm35.41-36.22a2.68,2.68,0,0,1-2.62-4.68l-.27.13a2.41,2.41,0,0,1,.94-.45l.13-.05-.05,0a2.7,2.7,0,0,1,1.87,5Z" style="fill: #7D3E90; transform-origin: 256.63px 291.708px;" id="el9mhkcp5o2bw" class="animable"></path><path d="M324.36,306.84c-1,2.77-1.43,6.05-3.83,7.73-2,1.45-4.83,1.17-7.24,1.91a8.79,8.79,0,0,0-5.16,4.54l35.67,0V295.71C335.82,294.21,327.07,299.17,324.36,306.84Z" style="fill: #7D3E90; transform-origin: 325.965px 308.231px;" id="elrdtjsl7ezxj" class="animable"></path><path d="M187.85,312.8a29.77,29.77,0,0,0-14.39,8.08l42.32.05c-1.45-1.24-2.9-2.5-4.43-3.6A29.18,29.18,0,0,0,187.85,312.8Z" style="fill: #7D3E90; transform-origin: 194.62px 316.474px;" id="el1pfcwb8h8go" class="animable"></path><path d="M267.08,315.4c-5.93-1.26-12.1.65-17.5,3.39-1.34.68-2.66,1.42-4,2.17l30.61,0A15.25,15.25,0,0,0,267.08,315.4Z" style="fill: #7D3E90; transform-origin: 260.885px 317.982px;" id="el56z0oprvtjk" class="animable"></path><path d="M254.72,217.57c-5.33.39-11-.52-15.76,2-4.25,2.21-6.83,6.71-10.3,10,.29.1.58.21.88.29,8.83,2.56,18.36,1.48,27.21-1,9.8-2.76,19.59-7.28,29.7-6,7.1.91,13.48,4.62,19.68,8.19s12.69,7.13,19.83,7.72c6.72.56,14.19-2.29,17.22-8.16V208.7h0l-76.55,0C266.25,213.94,260,217.17,254.72,217.57Z" style="fill: #7D3E90; transform-origin: 285.92px 223.77px;" id="el4t27rzmzjlp" class="animable"></path><path d="M314.08,254a4.45,4.45,0,1,0,3.07-5.78l.08,0-.21.08a4,4,0,0,0-1.54.74l.44-.21A4.65,4.65,0,0,0,314.08,254Z" style="fill: #7D3E90; transform-origin: 318.308px 252.525px;" id="eltccogtx1tun" class="animable"></path><path d="M290,295.8l.18-.08a9,9,0,0,0-1,.32,9.2,9.2,0,0,0-3,1.54l.8-.37c-3.57,2.56-5.48,7.55-4,11.75,1.92,5.32,8.88,8.13,14,5.63s7.1-9.72,4.07-14.51C298.77,296.51,294.07,294.92,290,295.8Z" style="fill: #7D3E90; transform-origin: 292.478px 305.538px;" id="elqobzlvw0fi" class="animable"></path><g id="elekmph4zpaya"><g style="opacity: 0.3; transform-origin: 292.478px 305.538px;" class="animable" id="el98seoyc2tyk"><path d="M290,295.8l.18-.08a9,9,0,0,0-1,.32,9.2,9.2,0,0,0-3,1.54l.8-.37c-3.57,2.56-5.48,7.55-4,11.75,1.92,5.32,8.88,8.13,14,5.63s7.1-9.72,4.07-14.51C298.77,296.51,294.07,294.92,290,295.8Z" style="fill: rgb(255, 255, 255); transform-origin: 292.478px 305.538px;" id="el7a8twwp0veh" class="animable"></path></g></g><path d="M333.47,274.49a2.84,2.84,0,0,0-3-1.15l.05,0-.13.05a2.41,2.41,0,0,0-.94.45l.27-.13a2.69,2.69,0,1,0,3.71.8Z" style="fill: #7D3E90; transform-origin: 331.173px 275.963px;" id="eltcuc4cbm60p" class="animable"></path><path d="M192.11,247.76c3-4,4.45-9.33,8.57-12.18,6.86-4.76,16.89.12,24.4-3.52a15,15,0,0,0,3.69-2.62c3.47-3.25,6-7.75,10.29-10,4.74-2.47,10.44-1.55,15.77-1.95s11.42-3.59,11.8-8.87H165.06l.14,43.3.21.13C173.13,257.25,186.54,255.12,192.11,247.76Z" style="fill: #7D3E90; transform-origin: 215.845px 231.769px;" id="el76573mv2zhm" class="animable"></path><g id="el0o3cliyjp1jg"><g style="opacity: 0.3; transform-origin: 280.71px 280.658px;" class="animable" id="eln0iem2itul"><path d="M343.29,257c-3.08-2.53-8.38-1.89-12,.3-4.27,2.57-7.61,6.63-12.21,8.54-11.35,4.73-24.76-5.37-36.27-1.05-9,3.38-13.88,14.67-23.36,16.27-5.17.87-10.3-1.47-15.51-2.08a23.62,23.62,0,0,0-26.27,25.53l3.93,1c5.71.66,11.34.78,16.76-1.05,15.62-5.28,24.13-25.18,40.51-27.07,9.09-1.05,18.16,4,27.17,2.47,7.32-1.24,13.14-6.55,19.18-10.85s11.88-8.26,18.62-5.79v-5.79C343.64,257.3,343.47,257.14,343.29,257Z" style="fill: rgb(255, 255, 255); transform-origin: 280.71px 280.658px;" id="elkit8h1xttgg" class="animable"></path></g></g><g id="ellwu0vf0mpvl"><g style="opacity: 0.3; transform-origin: 215.845px 231.77px;" class="animable" id="el3cwh4961qgi"><path d="M238.21,208.66H165.06l.14,43.3.21.13c7.72,5.16,21.13,3,26.7-4.33,3-4,4.45-9.33,8.57-12.18,6.86-4.76,16.89.12,24.4-3.52a15,15,0,0,0,3.69-2.62c3.47-3.25,6-7.75,10.29-10,4.74-2.47,10.44-1.55,15.77-1.95s11.42-3.59,11.8-8.87" style="fill: rgb(255, 255, 255); transform-origin: 215.845px 231.77px;" id="elcshzzlu1e3r" class="animable"></path></g></g><path d="M294.29,261.14c-.33-1.27-2.69-10.47-7-27.37l.08,0L209,253.76h0l.08-.13c2.42,9.54,4.76,18.78,7,27.39l-.12-.07,78.39-19.81-78.34,20-.1,0,0-.1c-2.19-8.61-4.54-17.85-7-27.39l0-.1.1,0h0l78.36-19.87.07,0,0,.07C291.65,250.65,294,259.86,294.29,261.14Z" style="fill: rgb(38, 50, 56); transform-origin: 251.63px 257.41px;" id="elsfpi6xcrlch" class="animable"></path><g id="ell3qrqsfumiq"><rect x="293.17" y="259.82" width="2.09" height="2.09" style="fill: rgb(69, 90, 100); transform-origin: 294.215px 260.865px; transform: rotate(-14.25deg);" class="animable" id="elzs1kmluc02c"></rect></g><g id="elxda3on99vgo"><rect x="214.88" y="280" width="2.09" height="2.09" style="fill: rgb(69, 90, 100); transform-origin: 215.925px 281.045px; transform: rotate(-14.25deg);" class="animable" id="elpd73x4e2r6"></rect></g><g id="el1vbd37xmwl2"><rect x="286.18" y="232.32" width="2.09" height="2.09" style="fill: rgb(69, 90, 100); transform-origin: 287.225px 233.365px; transform: rotate(-14.25deg);" class="animable" id="el835bo3kc5pl"></rect></g><g id="elgg9g1jw709a"><rect x="246.68" y="242.36" width="2.09" height="2.09" style="fill: rgb(69, 90, 100); transform-origin: 247.725px 243.405px; transform: rotate(-14.25deg);" class="animable" id="el4rww84gaj55"></rect></g><g id="elunpbuc7l17a"><rect x="253.67" y="269.85" width="2.09" height="2.09" style="fill: rgb(69, 90, 100); transform-origin: 254.715px 270.895px; transform: rotate(-14.25deg);" class="animable" id="elbb7ow44winl"></rect></g><g id="el7q74yvyyyt4"><rect x="211.28" y="265.85" width="2.09" height="2.09" style="fill: rgb(69, 90, 100); transform-origin: 212.325px 266.895px; transform: rotate(-14.25deg);" class="animable" id="elnz6sio2c59m"></rect></g><g id="elwo6enmnp82j"><rect x="289.64" y="245.94" width="2.09" height="2.09" style="fill: rgb(69, 90, 100); transform-origin: 290.685px 246.985px; transform: rotate(-14.25deg);" class="animable" id="elcb9buyhabss"></rect></g><g id="el9takjgtiif9"><rect x="207.92" y="252.61" width="2.09" height="2.09" style="fill: rgb(69, 90, 100); transform-origin: 208.965px 253.655px; transform: rotate(-14.25deg);" class="animable" id="el4okpzf1lmwx"></rect></g><path d="M228.21,256l-5.64,1.43-.68-2.67,14.44-3.67.68,2.68-5.64,1.43L235,269.58l-3.16.81Z" style="fill: rgb(38, 50, 56); transform-origin: 229.45px 260.74px;" id="elz0s2s7xtbrc" class="animable"></path><path d="M252.17,259.35,242,261.94a4.06,4.06,0,0,0,5,2,4.78,4.78,0,0,0,3.16-2.3l2.11,1.46a6.8,6.8,0,0,1-4.69,3.44c-4.35,1.1-7.88-1-8.87-4.84a6.66,6.66,0,0,1,5-8.34,6.53,6.53,0,0,1,8.27,5C252.05,258.68,252.12,259.05,252.17,259.35Zm-10.73.58,7.37-1.87a3.64,3.64,0,0,0-4.47-2.23A3.71,3.71,0,0,0,241.44,259.93Z" style="fill: rgb(38, 50, 56); transform-origin: 245.362px 259.96px;" id="elnrhxis2srl" class="animable"></path><path d="M264.44,262.11,260,258.46l-2.22,5.35-3.35.85,3.38-7.87-6.46-5.17,3.38-.86,4.27,3.45,2.1-5.07,3.28-.83-3.25,7.58,6.77,5.35Z" style="fill: rgb(38, 50, 56); transform-origin: 259.625px 256.485px;" id="elr3glrtqxb5" class="animable"></path><path d="M277.73,258A4.93,4.93,0,0,1,275,259.6c-2.84.72-4.86-.37-5.59-3.24l-1.58-6.25-2.14.54-.62-2.43,2.14-.54-.75-3,3-.77.75,3,3.48-.89.61,2.43-3.47.89,1.57,6.17a1.73,1.73,0,0,0,2.29,1.49,2.74,2.74,0,0,0,1.56-1Z" style="fill: rgb(38, 50, 56); transform-origin: 271.4px 251.863px;" id="elq8x8l3h8jki" class="animable"></path><path d="M292.71,254.94c0,.05-17.52,4.56-39.15,10.05s-39.2,9.91-39.21,9.85,17.51-4.55,39.15-10S292.69,254.88,292.71,254.94Z" style="fill: rgb(38, 50, 56); transform-origin: 253.53px 264.89px;" id="elgk72w1dp6wc" class="animable"></path><path d="M456.2,255.6a7.1,7.1,0,0,0,1.57-1.22,8,8,0,0,0,1.94-5.25,9,9,0,0,0-.79-4,8.61,8.61,0,0,0-3.19-3.61,12.3,12.3,0,0,0-11.46-.58c-4.16,1.66-7.88,5-12,8.26a35.17,35.17,0,0,1-6.86,4.49,21.1,21.1,0,0,1-8.48,1.92,22.46,22.46,0,0,1-16.72-7.31,20.11,20.11,0,0,1-4.68-8.68,13.44,13.44,0,0,1,1.15-10,11,11,0,0,1,3.56-3.75,8.32,8.32,0,0,1,4.91-1.42,7.24,7.24,0,0,1,4.57,2.1,9.81,9.81,0,0,1,2.43,4.32,12.42,12.42,0,0,1-1,9.39,13.08,13.08,0,0,1-7.09,5.66,17.36,17.36,0,0,1-8.66.66,28.2,28.2,0,0,1-7.75-2.69c-4.74-2.38-8.7-5.32-12.57-7.57a32.35,32.35,0,0,0-11.1-4.46,16.75,16.75,0,0,0-8.91.9,13.16,13.16,0,0,0-4.74,3.15l-.58.65c-.15.19-.27.36-.38.49l-.32.4a4.43,4.43,0,0,1,.28-.43l.36-.51.57-.67a12.9,12.9,0,0,1,4.73-3.27,16.9,16.9,0,0,1,9-1A32.55,32.55,0,0,1,375.28,236c3.89,2.24,7.87,5.16,12.57,7.51a28.2,28.2,0,0,0,7.63,2.62,17,17,0,0,0,8.43-.66,12.62,12.62,0,0,0,6.82-5.46,11.92,11.92,0,0,0,.95-9,9.5,9.5,0,0,0-2.3-4.1,6.74,6.74,0,0,0-4.24-1.94,7.8,7.8,0,0,0-4.6,1.34,10.63,10.63,0,0,0-3.39,3.57,13,13,0,0,0-1.1,9.62,19.56,19.56,0,0,0,4.56,8.45A21.93,21.93,0,0,0,417,255.13a20.89,20.89,0,0,0,8.29-1.85,35.73,35.73,0,0,0,6.79-4.42c4.08-3.27,7.85-6.6,12.1-8.27s8.75-1.36,11.76.68a9,9,0,0,1,3.26,3.75,9.24,9.24,0,0,1,.76,4.12,8,8,0,0,1-2.07,5.31,3.75,3.75,0,0,1-.66.58,2.21,2.21,0,0,1-.53.34Z" style="fill: rgb(38, 50, 56); transform-origin: 404.51px 240.028px;" id="el65v0h9xz22w" class="animable"></path><g id="elx3jcugk3ksn"><g style="opacity: 0.3; transform-origin: 325.965px 308.231px;" class="animable" id="ellgu72ee5wnk"><path d="M324.36,306.84c-1,2.77-1.43,6.05-3.83,7.73-2,1.45-4.83,1.17-7.24,1.91a8.79,8.79,0,0,0-5.16,4.54l35.67,0V295.71C335.82,294.21,327.07,299.17,324.36,306.84Z" id="eln1dneki7cem" class="animable" style="transform-origin: 325.965px 308.231px;"></path></g></g><g id="eleswaz6zfen8"><g style="opacity: 0.3; transform-origin: 331.173px 275.963px;" class="animable" id="elhc2szfvmr04"><path d="M333.47,274.49a2.84,2.84,0,0,0-3-1.15l.05,0-.13.05a2.41,2.41,0,0,0-.94.45l.27-.13a2.69,2.69,0,1,0,3.71.8Z" id="el0vqgcinydwrr" class="animable" style="transform-origin: 331.173px 275.963px;"></path></g></g><g id="elmcl39we008s"><g style="opacity: 0.3; transform-origin: 194.62px 316.474px;" class="animable" id="elgdhtst97cxv"><path d="M187.85,312.8a29.77,29.77,0,0,0-14.39,8.08l42.32.05c-1.45-1.24-2.9-2.5-4.43-3.6A29.18,29.18,0,0,0,187.85,312.8Z" id="el1nigi8lbixt" class="animable" style="transform-origin: 194.62px 316.474px;"></path></g></g><g id="el1fq0btqpq8b"><g style="opacity: 0.3; transform-origin: 260.885px 317.982px;" class="animable" id="elb0bjriukfsn"><path d="M267.08,315.4c-5.93-1.26-12.1.65-17.5,3.39-1.34.68-2.66,1.42-4,2.17l30.61,0A15.25,15.25,0,0,0,267.08,315.4Z" id="elk3vltotkjs" class="animable" style="transform-origin: 260.885px 317.982px;"></path></g></g><path d="M211.37,369.88c2.75-4.93,9.09-6.66,14.74-6.47S237.32,365.23,243,365c12.89-.61,24.07-10.89,37-10.52,7.75.22,15.32,4.33,22.93,2.9,1.85-.35,4-.93,5.38.37a3.41,3.41,0,0,1,.11,4.24,9.17,9.17,0,0,1-3.64,2.75c-19.69,10-42.49,10.92-64.39,13.67-5.6.7-11.3,1.53-16.86.55s-11.08-4.13-13.32-9.31" style="fill: #7D3E90; transform-origin: 259.658px 366.939px;" id="elvr3bkhu9978" class="animable"></path><g id="elffnq0w5cgl5"><g style="opacity: 0.5; transform-origin: 259.658px 366.939px;" class="animable" id="elh0qgwkwzrle"><path d="M211.37,369.88c2.75-4.93,9.09-6.66,14.74-6.47S237.32,365.23,243,365c12.89-.61,24.07-10.89,37-10.52,7.75.22,15.32,4.33,22.93,2.9,1.85-.35,4-.93,5.38.37a3.41,3.41,0,0,1,.11,4.24,9.17,9.17,0,0,1-3.64,2.75c-19.69,10-42.49,10.92-64.39,13.67-5.6.7-11.3,1.53-16.86.55s-11.08-4.13-13.32-9.31" id="elnnn8pavj1" class="animable" style="transform-origin: 259.658px 366.939px;"></path></g></g><path d="M367.14,337.82l-35.7-63-2.91-5.63a8.47,8.47,0,0,0-6.83-4.55l-5.76-.47s.42-6.68-2.7-6.16c-2,.35-9.28,6.59-7.87,8.43s5.54-2.9,5.54-2.9l1.58,11.68s-10.95-6.37-12.72-6a1.65,1.65,0,0,0-.44,3.14,30.85,30.85,0,0,1,12.57,13.49l0,0,25.3,56.48-8.65,6.91,10.27,26.85,21.63-14.8A16.77,16.77,0,0,0,367.14,337.82Z" style="fill: rgb(255, 190, 157); transform-origin: 333.927px 317.036px;" id="elcjpp06tjll" class="animable"></path><g id="el51o142vjn1d"><rect x="293.57" y="263.11" width="1.18" height="0.21" style="fill: rgb(38, 50, 56); transform-origin: 294.16px 263.215px; transform: rotate(27.52deg);" class="animable" id="elnjg4ngape6h"></rect></g><path d="M294.61,263.19l4.49.13,25.54,14.05a1.92,1.92,0,0,1,.77,2.59h0a1.93,1.93,0,0,1-2.61.79l-25.34-13.54-3.09-3.51A.31.31,0,0,1,294.61,263.19Z" style="fill: rgb(38, 50, 56); transform-origin: 309.967px 272.084px;" id="eltssfuyb3guf" class="animable"></path><polygon points="322.09 275.96 320.28 279.44 319.24 278.9 321.06 275.4 322.09 275.96" style="fill: rgb(69, 90, 100); transform-origin: 320.665px 277.42px;" id="elzmyb50ltaab" class="animable"></polygon><path d="M219.45,277.24c-1.8-.18-8.57,5.86-8.57,5.86L207.53,271s4.49.4,5.7-1.58-11-1.79-11.25-.45.7,5,.7,5l-4.61.89a9.06,9.06,0,0,0-7.28,7.84l-.75,6.44.13.06-35.68,59.6a22.76,22.76,0,0,0,4.61,28.88l35.74,25.39L208.18,374l-26.42-17.36L212,298.26s6.82-17.1,8.21-17.94A1.65,1.65,0,0,0,219.45,277.24Z" style="fill: rgb(255, 190, 157); transform-origin: 186.148px 335.509px;" id="elck77orbt0jk" class="animable"></path><path d="M344.23,377.77l-.42-4.15a18.06,18.06,0,0,0-6.87-12.45h0A18.12,18.12,0,0,1,330,346.29l.06-1.72-18.27,11.22a39.19,39.19,0,0,0-5.44,4.43l0-.09s-39,.64-95.67,8.92l-21.46-7.76,1.85,1.45c1,5.7-.88,10.74-4.89,14.92h0a18.14,18.14,0,0,0-5,13.3l.18,4.17s12.81,8.35,22.13,11.49l.35.1a111.33,111.33,0,0,0,49.77,9.51c34.87-1.42,63.53-20,67.29-22.52C329.65,389.13,344.23,377.77,344.23,377.77Z" style="fill: #7D3E90; transform-origin: 262.697px 380.446px;" id="elh9tjwo1o8p8" class="animable"></path><path d="M210.63,369.05a1.67,1.67,0,0,1,.38.3c.25.21.59.53,1,.95a27.88,27.88,0,0,1,3.27,3.91,24.06,24.06,0,0,1,3.25,6.84,21.42,21.42,0,0,1,.77,9.24,16.4,16.4,0,0,1-1.4,4.63,28.76,28.76,0,0,1-2.31,3.86,20.13,20.13,0,0,1-5.33,5.37,17.6,17.6,0,0,1-4.62,2.18,13,13,0,0,1-1.34.35,1.35,1.35,0,0,1-.48.07c0-.05.63-.2,1.75-.61a18.94,18.94,0,0,0,4.48-2.29,20.51,20.51,0,0,0,5.15-5.35,29.7,29.7,0,0,0,2.24-3.8,16.39,16.39,0,0,0,1.35-4.49,21.43,21.43,0,0,0-.72-9,24.35,24.35,0,0,0-3.1-6.77,32.58,32.58,0,0,0-3.11-4A18.07,18.07,0,0,1,210.63,369.05Z" style="fill: rgb(38, 50, 56); transform-origin: 211.658px 387.9px;" id="eliq7jn3f4m9" class="animable"></path><g id="elc33kq9xpw8l"><g style="opacity: 0.2; transform-origin: 257.834px 403.933px;" class="animable" id="el9wvxl9k928d"><path d="M310.25,399.89c2.83-2,1.42-6.13-1.71-7.61s-6.85-.59-10.15.49c-10.65,3.48-20.72,8.58-31.36,12.11s-22.27,5.41-33,2.25c-7.49-2.19-12.53-7.12-20.28-6.24-3.53.4-4.63,4.89-9.86,6a114.18,114.18,0,0,0,23.45,7.36,109,109,0,0,0,29.26,1.83,130,130,0,0,0,29.56-5.94A147.64,147.64,0,0,0,310.25,399.89Z" id="elqnmqt15oxzb" class="animable" style="transform-origin: 257.834px 403.933px;"></path></g></g><g id="elqregp5zqqx"><g style="opacity: 0.2; transform-origin: 214.808px 376.125px;" class="animable" id="elt111zhzaedj"><path d="M219.08,383.73s.93-9.47-4.79-15.21l-3.81.58S215.5,372.71,219.08,383.73Z" id="el908flflrc86" class="animable" style="transform-origin: 214.808px 376.125px;"></path></g></g><path d="M237.23,358.56c-.2.52,1.93,22.44,1.93,22.44s11.11,15.5,28.58.41l2.11-23.9Z" style="fill: rgb(255, 190, 157); transform-origin: 253.533px 372.761px;" id="elx1xuzil0r8" class="animable"></path><g id="elewkd2cyokvs"><g style="opacity: 0.2; transform-origin: 235.87px 373.285px;" class="animable" id="el3uy10jv2or3"><path d="M239.16,381s-5.15-8.55-6.58-14.92l4.23-.51,1,1.19Z" id="elet5qinnali" class="animable" style="transform-origin: 235.87px 373.285px;"></path></g></g><path d="M330.94,387.2a2.17,2.17,0,0,1-.43.3c-.29.18-.72.44-1.29.74a20.36,20.36,0,0,1-5.12,2,12.87,12.87,0,0,1-3.8.3,18.28,18.28,0,0,1-4.29-.9A18.91,18.91,0,0,1,307.8,384a17.87,17.87,0,0,1-2.8-4.38,30,30,0,0,1-1.55-4.56,20.77,20.77,0,0,1-.61-8.11,12.36,12.36,0,0,1,1.92-5.13,8.89,8.89,0,0,1,.92-1.18c.23-.25.35-.38.37-.36a2.41,2.41,0,0,1-.29.43,10.68,10.68,0,0,0-.83,1.22A12.81,12.81,0,0,0,303.2,367a21.12,21.12,0,0,0,.71,7.94,30.94,30.94,0,0,0,1.56,4.47,17.61,17.61,0,0,0,2.72,4.25c4.56,5.32,11.43,7.24,15.84,6.17a22.26,22.26,0,0,0,5.1-1.8C330.29,387.51,330.92,387.16,330.94,387.2Z" style="fill: rgb(38, 50, 56); transform-origin: 316.813px 375.425px;" id="elxmhfdwkzp09" class="animable"></path><path d="M306,381.67l-.19.13-.6.33-2.34,1.26c-1,.55-2.26,1.21-3.75,1.88s-3.15,1.54-5.07,2.29-4,1.67-6.28,2.45-4.75,1.61-7.36,2.41a133.3,133.3,0,0,1-17.33,3.75,139.36,139.36,0,0,1-17.68,1.27l-4,0c-1.29,0-2.54-.11-3.75-.15-2.42-.09-4.67-.32-6.72-.51s-3.9-.47-5.52-.67-3-.45-4.15-.66l-2.61-.48-.67-.14a.67.67,0,0,1-.23-.06H218l.68.09,2.62.38c1.14.18,2.53.4,4.15.57s3.47.46,5.52.59,4.29.38,6.71.44c1.21,0,2.45.14,3.74.14h4a142.51,142.51,0,0,0,17.62-1.31A138.52,138.52,0,0,0,280.32,392c2.6-.78,5.08-1.51,7.34-2.36s4.38-1.62,6.28-2.38,3.59-1.56,5.09-2.21,2.76-1.28,3.79-1.8L305.2,382l.62-.29Z" style="fill: rgb(38, 50, 56); transform-origin: 261.875px 389.555px;" id="ell1f75sonzdr" class="animable"></path><g id="elnjph8zebsnj"><g style="opacity: 0.2; transform-origin: 271.086px 381.037px;" class="animable" id="elz9wmamh2p2b"><path d="M249,387.13a7,7,0,0,0,6.64,9.51,8.2,8.2,0,0,1,3.09.11c1.17.46,1.82,1.67,2.59,2.66a9.24,9.24,0,0,0,16.53-5.27,3.22,3.22,0,0,1,.48-2c1-1.16,2.8,0,4.16.67,3.45,1.8,8.09,0,10-3.39s1.31-7.83-.88-11.05a17.42,17.42,0,0,0-9.46-6.45c-2.39-.73-5-1.17-6.87-2.83-2.69-2.39-2.94-6.43-3-10" id="elckrdkl89opp" class="animable" style="transform-origin: 271.086px 381.037px;"></path></g></g><path d="M277.42,319.12c2.45,5.36,3.72,8.45,4.09,14.17A42.72,42.72,0,0,1,274.16,361c0,.06,0-.07,0,0-4.16,6.34-16.62,14.24-20.31,15.31s-18.36-8.07-21.33-18.34-6.77-16.51-1.72-34.47c5.17-18.4,30-19.05,30-19.05s16.65,0,19.7,9.66S277.42,319.12,277.42,319.12Z" style="fill: rgb(38, 50, 56); transform-origin: 254.996px 340.423px;" id="elux3vov7x4d" class="animable"></path><path d="M251.2,339.73a11.88,11.88,0,0,0-8.63,18.55c2.05,3,5.44,5,7,8.27,1.46,3,1.16,6.53.46,9.79s-1.76,6.48-1.71,9.81,1.5,6.91,4.51,8.33,7.42-.58,7.43-3.91c-1,5.27,5.07,10.45,10.11,8.61s6.36-9.72,2.19-13.1c3.69.87,7.82.86,11-1.23s4.76-6.74,2.61-9.85c-2.55-3.69-8.35-3.36-11.57-6.48-2.65-2.59-2.8-6.72-3-10.41-.28-5.33-1.07-10.79-3.79-15.37s-7.73-8.13-13-7.76" style="fill: rgb(38, 50, 56); transform-origin: 263.82px 367.256px;" id="elfjzdq6koef" class="animable"></path><path d="M260.77,390.35a2.18,2.18,0,0,1-.53-.25,3.82,3.82,0,0,1-.61-.36,5.79,5.79,0,0,1-.78-.58,12,12,0,0,1-3.53-5,16.26,16.26,0,0,1-1-4.16,20,20,0,0,1,.16-4.91,50.51,50.51,0,0,1,3.22-10.72,49.78,49.78,0,0,0,3.19-10.61,19,19,0,0,0,.16-4.79,15.77,15.77,0,0,0-1-4.07,12.25,12.25,0,0,0-3.39-5c-1.1-.92-1.84-1.25-1.81-1.3a2.15,2.15,0,0,1,.53.23,4.35,4.35,0,0,1,.62.36,5.33,5.33,0,0,1,.79.56,11.93,11.93,0,0,1,3.6,5,15.66,15.66,0,0,1,1.06,4.15,19.86,19.86,0,0,1-.11,4.91,49.09,49.09,0,0,1-3.18,10.73,52.15,52.15,0,0,0-3.24,10.6,20.18,20.18,0,0,0-.2,4.8,16.22,16.22,0,0,0,.92,4.07,12.4,12.4,0,0,0,3.31,5C260.06,390,260.8,390.3,260.77,390.35Z" style="fill: rgb(250, 250, 250); transform-origin: 257.895px 364.475px;" id="el1r3d64mywii" class="animable"></path><path d="M275.8,386.35a2.19,2.19,0,0,1-.62.14,9.91,9.91,0,0,1-1.82.09,10.75,10.75,0,0,1-6.21-2.37,10.86,10.86,0,0,1-3.91-8.9,19.23,19.23,0,0,1,1.4-5.72c.71-1.91,1.54-3.83,2.08-5.88a25.77,25.77,0,0,0,.48-11.87,20.32,20.32,0,0,0-4.1-8.78,18.43,18.43,0,0,0-5-4.34c-1.34-.8-2.16-1.1-2.14-1.15a2.64,2.64,0,0,1,.6.2,12.23,12.23,0,0,1,1.64.78,17.68,17.68,0,0,1,5.14,4.27,20.54,20.54,0,0,1,4.28,8.92,25.79,25.79,0,0,1-.45,12.1,56.48,56.48,0,0,1-2.11,5.93,19.06,19.06,0,0,0-1.39,5.56,10.52,10.52,0,0,0,3.67,8.6,10.79,10.79,0,0,0,6,2.44A18.17,18.17,0,0,0,275.8,386.35Z" style="fill: rgb(69, 90, 100); transform-origin: 265.88px 362.08px;" id="elmg8bt9414r" class="animable"></path><path d="M260.69,336.08a13.58,13.58,0,0,0-1.76-1.37,5.81,5.81,0,0,0-8.58,3.2,13.71,13.71,0,0,0-.44,2.18s-.09-.21-.12-.61a5.23,5.23,0,0,1,.21-1.68,5.95,5.95,0,0,1,9.12-3.4,5.21,5.21,0,0,1,1.26,1.14C260.62,335.86,260.71,336.06,260.69,336.08Z" style="fill: #7D3E90; transform-origin: 255.239px 336.724px;" id="el35od2hcjbfc" class="animable"></path><path d="M251.17,376.88s-.14-.08-.36-.27a12.44,12.44,0,0,1-.94-.92,17.36,17.36,0,0,1-2.72-3.93,16.19,16.19,0,0,1-1.78-6.89,9.27,9.27,0,0,1,.88-4.15,16.41,16.41,0,0,1,2.72-3.63,10.27,10.27,0,0,0,2.35-3.64,6.87,6.87,0,0,0-.14-4c-.74-2.5-2.06-4.62-2.3-6.69a6.3,6.3,0,0,1,.82-4.68,3.29,3.29,0,0,1,1-.9c.27-.15.41-.22.42-.2a5.41,5.41,0,0,0-1.21,1.21,6.34,6.34,0,0,0-.62,4.51c.27,2,1.6,4,2.4,6.61a7.36,7.36,0,0,1,.17,4.25,10.63,10.63,0,0,1-2.45,3.84,16.84,16.84,0,0,0-2.66,3.51,8.88,8.88,0,0,0-.85,3.93,16.17,16.17,0,0,0,1.63,6.72,18.73,18.73,0,0,0,2.55,4C250.75,376.42,251.2,376.85,251.17,376.88Z" style="fill: rgb(69, 90, 100); transform-origin: 248.731px 356.928px;" id="el99ivh7wy5jw" class="animable"></path><path d="M272.34,366.64a7.35,7.35,0,0,1,.06-1.43c.07-.92.16-2.24.2-3.88a34.06,34.06,0,0,0-1.79-12.55,20.89,20.89,0,0,0-7.55-10,21.53,21.53,0,0,0-4.74-2.31s.13,0,.37.05a7.62,7.62,0,0,1,1,.27,14.49,14.49,0,0,1,3.54,1.69,20.43,20.43,0,0,1,7.84,10.1A32.43,32.43,0,0,1,273,361.34c-.09,1.65-.23,3-.37,3.89A8,8,0,0,1,272.34,366.64Z" style="fill: rgb(69, 90, 100); transform-origin: 265.794px 351.555px;" id="eluj12leazs0o" class="animable"></path><path d="M263.25,338.44a12.63,12.63,0,0,1,0-2.35,12.25,12.25,0,0,0-.83-5.44,6.18,6.18,0,0,0-4-3.46,15,15,0,0,0-2.29-.31,4.07,4.07,0,0,1,2.38-.05,6.28,6.28,0,0,1,4.38,3.6,11.38,11.38,0,0,1,.72,5.68A8.49,8.49,0,0,1,263.25,338.44Z" style="fill: rgb(69, 90, 100); transform-origin: 259.917px 332.558px;" id="el0aby81si7no" class="animable"></path><path d="M264.87,319.85a9.06,9.06,0,0,1-1.38-.52,8.31,8.31,0,0,0-3.4-.44,8.08,8.08,0,0,0-3.28,1,10.16,10.16,0,0,1-1.26.75c-.05,0,.3-.52,1.06-1.06a7,7,0,0,1,3.43-1.24,7.11,7.11,0,0,1,3.59.62C264.48,319.4,264.91,319.81,264.87,319.85Z" style="fill: rgb(245, 245, 245); transform-origin: 260.209px 319.476px;" id="elheo4y47gld" class="animable"></path><path d="M276.93,319.81a24.55,24.55,0,0,0-2.56-2.54,12.39,12.39,0,0,0-15.91.2,22.76,22.76,0,0,0-2.49,2.61,2.92,2.92,0,0,1,.47-.86,11,11,0,0,1,1.78-2,12.31,12.31,0,0,1,16.39-.21,11.16,11.16,0,0,1,1.82,2A3.22,3.22,0,0,1,276.93,319.81Z" style="fill: rgb(69, 90, 100); transform-origin: 266.45px 317.035px;" id="ela1csga2uj8p" class="animable"></path><path d="M271.29,305.76c0,.1-1.29.17-3.26.76a17.37,17.37,0,0,0-11.35,10.54c-.74,1.93-.91,3.22-1,3.2a2.63,2.63,0,0,1,.06-.91,14.1,14.1,0,0,1,.59-2.41,16.56,16.56,0,0,1,11.6-10.77,14,14,0,0,1,2.45-.42A2.81,2.81,0,0,1,271.29,305.76Z" style="fill: rgb(245, 245, 245); transform-origin: 263.477px 312.989px;" id="el2eva0ieffdb" class="animable"></path><path d="M255.62,305.65c.07.06-.55.72-1.23,2a10.72,10.72,0,0,0,.1,10.52c.7,1.24,1.33,1.88,1.27,1.94a5.28,5.28,0,0,1-1.58-1.75,10.08,10.08,0,0,1-.1-10.9A5.43,5.43,0,0,1,255.62,305.65Z" style="fill: rgb(69, 90, 100); transform-origin: 254.147px 312.88px;" id="ellohdeviyxvg" class="animable"></path><path d="M241.82,309.38a19.08,19.08,0,0,0,.77,2.57,11.13,11.13,0,0,0,4.25,4.72,23.62,23.62,0,0,0,6,2.47,16.7,16.7,0,0,1,2.61.8,12.25,12.25,0,0,1-2.7-.44,20,20,0,0,1-6.18-2.39,10.64,10.64,0,0,1-4.32-5,7.07,7.07,0,0,1-.46-2A1.79,1.79,0,0,1,241.82,309.38Z" style="fill: rgb(69, 90, 100); transform-origin: 248.608px 314.66px;" id="el61lo798kcvn" class="animable"></path><path d="M249.44,353.1A2.58,2.58,0,0,1,249,353a13.11,13.11,0,0,1-1.37-.48,18.28,18.28,0,0,1-4.55-2.73,17.59,17.59,0,0,1-4.84-6.21A15.94,15.94,0,0,1,237,334a14.58,14.58,0,0,1,4.67-8.38,14.16,14.16,0,0,1,7.18-3.21,12.73,12.73,0,0,1,5.29.36,10.13,10.13,0,0,1,1.36.51,2.16,2.16,0,0,1,.44.23c0,.06-.65-.25-1.85-.55a13.22,13.22,0,0,0-5.19-.18A13.92,13.92,0,0,0,242,326a14.23,14.23,0,0,0-4.48,8.1,15.62,15.62,0,0,0,1.09,9.24,17.63,17.63,0,0,0,4.63,6.13,20,20,0,0,0,4.41,2.82C248.79,352.84,249.45,353.05,249.44,353.1Z" style="fill: rgb(69, 90, 100); transform-origin: 246.342px 337.691px;" id="elvej9mes6rmh" class="animable"></path><path d="M248.11,363.66a5.21,5.21,0,0,1-.63-.29c-.4-.2-1-.51-1.72-1A33.15,33.15,0,0,1,240,358a33.87,33.87,0,0,1-8.89-14.48,21.8,21.8,0,0,1-1-6.77,14.56,14.56,0,0,1,1.74-6.63,17.34,17.34,0,0,1,4-5,19.79,19.79,0,0,1,9.77-4.36,26,26,0,0,1,7.25-.09c.85.11,1.5.23,1.94.33a3,3,0,0,1,.67.17,3.51,3.51,0,0,1-.69-.07c-.44-.06-1.1-.15-1.94-.23a27.52,27.52,0,0,0-7.17.25,19.64,19.64,0,0,0-9.52,4.37,15.33,15.33,0,0,0-5.56,11.23,22,22,0,0,0,1,6.62,34.67,34.67,0,0,0,8.66,14.35,36.07,36.07,0,0,0,5.59,4.52C247.29,363.18,248.14,363.6,248.11,363.66Z" style="fill: rgb(69, 90, 100); transform-origin: 242.794px 342.06px;" id="elkm8atiw8bx" class="animable"></path><path d="M272.27,352.93a26.36,26.36,0,0,0,2.67-5.76,20.61,20.61,0,0,0,.81-6.79,19,19,0,0,0-2.2-8,19.37,19.37,0,0,0-11.37-9.57,10,10,0,0,0-4.57-.24c-1.06.24-1.61.54-1.63.5s.13-.1.38-.24a6.89,6.89,0,0,1,1.21-.45,9.56,9.56,0,0,1,4.7.07,17.13,17.13,0,0,1,6.24,3.14,20.41,20.41,0,0,1,5.5,6.55,19.11,19.11,0,0,1,2.22,8.25,20.26,20.26,0,0,1-.94,6.92,19.59,19.59,0,0,1-2,4.26,12,12,0,0,1-.73,1C272.39,352.82,272.29,352.94,272.27,352.93Z" style="fill: rgb(69, 90, 100); transform-origin: 266.111px 337.526px;" id="el0ngcjh1idum" class="animable"></path></g><g id="freepik--Windows--inject-178" class="animable" style="transform-origin: 243.91px 206.091px;"><rect x="267.24" y="82.33" width="153.98" height="114.81" style="fill: rgb(255, 255, 255); transform-origin: 344.23px 139.735px;" id="elvpqzf5yzka" class="animable"></rect><path d="M421.22,197.14s0-.72,0-2.1,0-3.43,0-6.1c0-5.35,0-13.19-.06-23.2,0-20-.06-48.68-.11-83.41l.21.21-154,0h0l.26-.26c0,41.25,0,80.33,0,114.81l-.24-.23,111.13.11,31.58.07,8.37,0,2.16,0h.74l-.71,0h-2.13l-8.33,0-31.53.06-111.28.12H267v-.24c0-34.48,0-73.56,0-114.81v-.26h.28l154,0h.22v.22c-.05,34.79-.09,63.51-.11,83.55,0,10-.05,17.81-.06,23.14,0,2.65,0,4.68,0,6.06S421.22,197.14,421.22,197.14Z" style="fill: rgb(38, 50, 56); transform-origin: 344.25px 139.565px;" id="ell6mv2016a7i" class="animable"></path><rect x="346.64" y="150.11" width="93.63" height="36.4" style="fill: rgb(250, 250, 250); transform-origin: 393.455px 168.31px;" id="el9d98mb0e8gj" class="animable"></rect><path d="M440.27,186.51s0-.23,0-.66,0-1.07,0-1.89c0-1.66,0-4.1-.05-7.23,0-6.28-.05-15.35-.09-26.62l.18.18-93.63.08h0l.26-.26c0,12.72,0,25,0,36.4l-.25-.25,67.06.11,19.5.07,5.24,0h1.35l.48,0h-.44l-1.33,0-5.18,0-19.45.07-67.23.12h-.25v-.25c0-11.38,0-23.68,0-36.4v-.26h.26l93.63.08h.18v.18c-.05,11.31-.08,20.43-.1,26.73,0,3.12,0,5.53-.05,7.19,0,.81,0,1.42,0,1.86S440.27,186.51,440.27,186.51Z" style="fill: rgb(38, 50, 56); transform-origin: 393.475px 168.175px;" id="elky2ri7vas29" class="animable"></path><rect x="346.64" y="150.11" width="93.63" height="7.8" style="fill: rgb(38, 50, 56); transform-origin: 393.455px 154.01px;" id="eltiozz5ijuxh" class="animable"></rect><rect x="357.76" y="163.86" width="9.19" height="9.19" style="fill: rgb(38, 50, 56); transform-origin: 362.355px 168.455px;" id="elq4l8hfv3eam" class="animable"></rect><rect x="363.33" y="169.42" width="9.19" height="9.19" style="fill: rgb(38, 50, 56); transform-origin: 367.925px 174.015px;" id="elxkzu4mg6bfh" class="animable"></rect><rect x="379.68" y="163.86" width="9.19" height="9.19" style="fill: rgb(38, 50, 56); transform-origin: 384.275px 168.455px;" id="elvl3h2i8ng9o" class="animable"></rect><rect x="385.25" y="169.42" width="9.19" height="9.19" style="fill: rgb(245, 245, 245); transform-origin: 389.845px 174.015px;" id="el10dpdwavvauf" class="animable"></rect><path d="M394.44,178.62a6.64,6.64,0,0,1-.05-.71c0-.52,0-1.14-.06-1.89,0-1.62-.09-3.89-.11-6.6l.22.23-9.19,0,.26-.26h0v2.47c0,.81,0,1.6,0,2.37,0,1.54,0,3,0,4.34l-.22-.23c2.71,0,5,.08,6.59.12l1.9.06a4.24,4.24,0,0,1,.7.05,2.48,2.48,0,0,1-.61,0l-1.84.06c-1.6,0-3.93.09-6.74.11H385v-.23c0-1.35,0-2.8,0-4.34,0-.77,0-1.56,0-2.37v-2.47h0c-.23.23.32-.32.26-.27l9.19,0h.23v.22c0,2.81-.07,5.14-.12,6.74,0,.73,0,1.34-.05,1.85A2.17,2.17,0,0,1,394.44,178.62Z" style="fill: rgb(38, 50, 56); transform-origin: 389.812px 173.898px;" id="eli40axuczy1p" class="animable"></path><rect x="400.13" y="163.86" width="9.19" height="9.19" style="fill: rgb(245, 245, 245); transform-origin: 404.725px 168.455px;" id="elh5o52c7og9e" class="animable"></rect><path d="M409.32,173.05a6.64,6.64,0,0,1-.05-.71q0-.76-.06-1.89c0-1.62-.09-3.89-.11-6.59l.22.22-9.19,0c-.06,0,.49-.5.26-.26h0v2.45c0,.81,0,1.6,0,2.37,0,1.54,0,3,0,4.34l-.23-.22c2.71,0,5,.07,6.59.11l1.9.06a4.24,4.24,0,0,1,.7.05,2.48,2.48,0,0,1-.61,0l-1.84.06c-1.6,0-3.93.09-6.74.12h-.22v-.23c0-1.34,0-2.8,0-4.34,0-.77,0-1.56,0-2.37v-2.45h0l.26-.26,9.19,0h.23v.23c0,2.8-.07,5.13-.11,6.73,0,.73-.05,1.34-.06,1.85A2.17,2.17,0,0,1,409.32,173.05Z" style="fill: rgb(38, 50, 56); transform-origin: 404.78px 168.335px;" id="elp1r8kvw6lv" class="animable"></path><rect x="405.7" y="169.42" width="9.19" height="9.19" style="fill: rgb(245, 245, 245); transform-origin: 410.295px 174.015px;" id="elg0pxjxosm4c" class="animable"></rect><path d="M414.89,178.62a6.64,6.64,0,0,1-.05-.71c0-.52,0-1.14-.06-1.89,0-1.62-.09-3.89-.11-6.6l.22.23-9.19,0,.26-.26h0v2.47c0,.81,0,1.6,0,2.37,0,1.54,0,3,0,4.34l-.22-.23c2.71,0,5,.08,6.59.12l1.9.06a4.24,4.24,0,0,1,.7.05,2.48,2.48,0,0,1-.61,0l-1.84.06c-1.61,0-3.93.09-6.74.11h-.23v-.23c0-1.35,0-2.8,0-4.34,0-.77,0-1.56,0-2.37v-2.47h0c-.23.23.32-.32.26-.27l9.19,0h.23v.22c0,2.81-.07,5.14-.12,6.74,0,.73,0,1.34-.05,1.85A2.17,2.17,0,0,1,414.89,178.62Z" style="fill: rgb(38, 50, 56); transform-origin: 410.322px 173.898px;" id="elmv9jnzdqkya" class="animable"></path><rect x="405.7" y="169.42" width="3.63" height="3.63" style="fill: rgb(38, 50, 56); transform-origin: 407.515px 171.235px;" id="elfwwhjyru2ih" class="animable"></rect><rect x="418.93" y="163.86" width="9.19" height="9.19" style="fill: rgb(38, 50, 56); transform-origin: 423.525px 168.455px;" id="elqued3jc47fs" class="animable"></rect><rect x="424.5" y="169.42" width="9.19" height="9.19" style="fill: rgb(38, 50, 56); transform-origin: 429.095px 174.015px;" id="elk3vv6a2nga" class="animable"></rect><rect x="424.5" y="169.42" width="3.63" height="3.63" style="fill: rgb(250, 250, 250); transform-origin: 426.315px 171.235px;" id="elg9j0jaqthr" class="animable"></rect><rect x="368.8" y="261.13" width="89.98" height="34.98" style="fill: rgb(250, 250, 250); transform-origin: 413.79px 278.62px;" id="el8yy57qmrzll" class="animable"></rect><path d="M458.91,296.24H368.68V261h90.23Zm-90-.25h89.73V261.26H368.93Z" style="fill: rgb(34, 34, 33); transform-origin: 413.795px 278.62px;" id="elm50szrnapyq" class="animable"></path><rect x="368.8" y="261.13" width="89.98" height="7.5" style="fill: rgb(38, 50, 56); transform-origin: 413.79px 264.88px;" id="elh457enqmn5" class="animable"></rect><rect x="373.88" y="277.98" width="8.89" height="8.89" style="fill: rgb(245, 245, 245); transform-origin: 378.325px 282.425px;" id="el7hdmq09dz4q" class="animable"></rect><path d="M382.77,286.87a3.33,3.33,0,0,1-.06-.68c0-.51,0-1.11,0-1.83-.05-1.57-.1-3.76-.12-6.38l.23.23-8.89,0c-.06.06.49-.49.26-.25h0v4.68c0,1.49,0,2.89,0,4.19l-.22-.22c2.61,0,4.81.07,6.37.11l1.83.06a6.52,6.52,0,0,1,.69.05,19.56,19.56,0,0,1-2.38.11c-1.55,0-3.8.1-6.51.12h-.23v-.23c0-1.3,0-2.7,0-4.19V278h0l.27-.27,8.89,0H383V278c0,2.72-.07,5-.11,6.52S382.8,286.91,382.77,286.87Z" style="fill: rgb(38, 50, 56); transform-origin: 378.37px 282.395px;" id="elg39tsegbpvi" class="animable"></path><line x1="382.77" y1="277.98" x2="373.88" y2="286.87" style="fill: rgb(250, 250, 250); transform-origin: 378.325px 282.425px;" id="elmpxldjuirta" class="animable"></line><path d="M373.88,286.87a36.88,36.88,0,0,1,4.26-4.62,37.25,37.25,0,0,1,4.63-4.27,37.25,37.25,0,0,1-4.27,4.63A36.88,36.88,0,0,1,373.88,286.87Z" style="fill: #7D3E90; transform-origin: 378.325px 282.425px;" id="elejqzpyduo5" class="animable"></path><rect x="385.44" y="277.98" width="8.89" height="8.89" style="fill: rgb(38, 50, 56); transform-origin: 389.885px 282.425px;" id="elb9135u0rxid" class="animable"></rect><rect x="397.01" y="277.98" width="8.89" height="8.89" style="fill: rgb(69, 90, 100); transform-origin: 401.455px 282.425px;" id="el1epmz45dd8si" class="animable"></rect><rect x="408.58" y="277.98" width="8.89" height="8.89" style="fill: #7D3E90; transform-origin: 413.025px 282.425px;" id="elnd3rgohp6ho" class="animable"></rect><rect x="420.15" y="277.98" width="8.89" height="8.89" style="fill: #7D3E90; transform-origin: 424.595px 282.425px;" id="el81jqcuvncpx" class="animable"></rect><g id="el1olnp6hv5fn"><g style="opacity: 0.5; transform-origin: 424.595px 282.425px;" class="animable" id="eldadzf9askt5"><rect x="420.15" y="277.98" width="8.89" height="8.89" style="fill: rgb(255, 255, 255); transform-origin: 424.595px 282.425px;" id="elqsan8xv6qah" class="animable"></rect></g></g><rect x="431.72" y="277.98" width="8.89" height="8.89" style="fill: #7D3E90; transform-origin: 436.165px 282.425px;" id="eljg0moo4ff5s" class="animable"></rect><g id="el4945ugrpxos"><g style="opacity: 0.3; transform-origin: 436.165px 282.425px;" class="animable" id="eln5233rjv1z"><rect x="431.72" y="277.98" width="8.89" height="8.89" id="elj1t1a00dbv9" class="animable" style="transform-origin: 436.165px 282.425px;"></rect></g></g><rect x="443.28" y="277.98" width="8.89" height="8.89" style="fill: #7D3E90; transform-origin: 447.725px 282.425px;" id="elcbhlmdzsr7" class="animable"></rect><g id="elda5p8ytjq8"><g style="opacity: 0.7; transform-origin: 447.725px 282.425px;" class="animable" id="el8dmd1eyu8xp"><rect x="443.28" y="277.98" width="8.89" height="8.89" id="elxd5y5m68vm9" class="animable" style="transform-origin: 447.725px 282.425px;"></rect></g></g><rect x="104.05" y="82.33" width="125.82" height="87.62" style="fill: rgb(255, 255, 255); transform-origin: 166.96px 126.14px;" id="elb93aieh1vbj" class="animable"></rect><path d="M229.87,170s0-.55,0-1.6,0-2.61,0-4.64c0-4.07,0-10,0-17.65,0-15.24-.07-37.12-.11-63.73l.21.21-125.81,0h0l.26-.26c0,31.31,0,61.05,0,87.62l-.23-.24,90.69.12,25.86.06,6.88,0h1.77l.62,0h-.59l-1.75,0-6.83,0-25.81.07-90.84.11h-.24V170c0-26.57,0-56.31,0-87.62v-.26h.27l125.81.05h.21v.21C230,109,230,130.92,230,146.19c0,7.6-.05,13.55-.06,17.6,0,2,0,3.55,0,4.6S229.87,170,229.87,170Z" style="fill: rgb(38, 50, 56); transform-origin: 167.095px 126.095px;" id="elzmu3lw3et6" class="animable"></path><rect x="104.05" y="82.33" width="125.82" height="10.95" style="fill: rgb(38, 50, 56); transform-origin: 166.96px 87.805px;" id="el9b5papmbw8m" class="animable"></rect><path d="M110.88,88.11a1.32,1.32,0,1,1-1.32-1.37A1.35,1.35,0,0,1,110.88,88.11Z" style="fill: rgb(255, 255, 255); transform-origin: 109.561px 88.06px;" id="el6kpuj4d6r3n" class="animable"></path><path d="M116.2,88.11a1.31,1.31,0,1,1-1.31-1.37A1.35,1.35,0,0,1,116.2,88.11Z" style="fill: rgb(255, 255, 255); transform-origin: 114.891px 88.05px;" id="el7eib8d1o92i" class="animable"></path><path d="M121.52,88.11a1.31,1.31,0,1,1-1.31-1.37A1.34,1.34,0,0,1,121.52,88.11Z" style="fill: rgb(255, 255, 255); transform-origin: 120.211px 88.05px;" id="elj4hpiemwe17" class="animable"></path><rect x="116.01" y="104.01" width="17.93" height="43.02" style="fill: #7D3E90; transform-origin: 124.975px 125.52px;" id="elx5wt8rirg0b" class="animable"></rect><rect x="143.66" y="104.01" width="17.93" height="43.02" style="fill: rgb(235, 235, 235); transform-origin: 152.625px 125.52px;" id="el43ahzlized4" class="animable"></rect><rect x="171.31" y="104.01" width="17.93" height="43.02" style="fill: rgb(250, 250, 250); transform-origin: 180.275px 125.52px;" id="eldz1ctkeaan" class="animable"></rect><rect x="198.96" y="104.34" width="17.93" height="43.02" style="fill: rgb(224, 224, 224); transform-origin: 207.925px 125.85px;" id="elrm4td4hv6l" class="animable"></rect><rect x="113.93" y="151.77" width="108.68" height="9.83" style="fill: #7D3E90; transform-origin: 168.27px 156.685px;" id="elxtllx4wd6z" class="animable"></rect><polygon points="214.35 159.59 216.69 171.43 218.61 168.12 222.74 174.02 224.8 172.69 220.67 166.79 224.47 166.24 214.35 159.59" style="fill: rgb(38, 50, 56); transform-origin: 219.575px 166.805px;" id="elg856pryxmf6" class="animable"></polygon><rect x="126.27" y="180.36" width="55.38" height="94.99" style="fill: rgb(250, 250, 250); transform-origin: 153.96px 227.855px;" id="elubcg47q9r1j" class="animable"></rect><path d="M181.65,275.35s0-.16,0-.47,0-.77,0-1.36c0-1.2,0-3,0-5.23,0-4.58,0-11.23-.07-19.63,0-16.78-.07-40.49-.12-68.3l.25.24-55.38,0h0l.26-.26c0,36.24,0,69.47-.06,95l-.2-.2,40.37.11,11.09.05,2.91,0,1,0-1,0-2.87,0-11.05.05-40.49.11h-.21v-.2c0-25.52,0-58.75-.06-95v-.26h.27l55.38,0h.24v.24c0,27.87-.09,51.64-.12,68.46,0,8.37-.05,15-.07,19.57,0,2.26,0,4,0,5.19,0,.58,0,1,0,1.33S181.65,275.35,181.65,275.35Z" style="fill: rgb(34, 34, 33); transform-origin: 153.965px 227.73px;" id="elajnijafytam" class="animable"></path><rect x="126.27" y="180.36" width="55.38" height="8" style="fill: rgb(38, 50, 56); transform-origin: 153.96px 184.36px;" id="elymc2acbfmm" class="animable"></rect><polygon points="139.57 198.35 140.24 207.22 142.72 203.99 146.86 203.82 139.57 198.35" style="fill: rgb(38, 50, 56); transform-origin: 143.215px 202.785px;" id="eljyqu8z0zooh" class="animable"></polygon><path d="M163.51,198.35l.52.37,1.52,1.08c1.3.94,3.18,2.29,5.34,3.9l.33.25-.42,0-4,.17h-.15l.12-.07-2.48,3.23-.24.31,0-.39c-.19-2.62-.31-4.88-.4-6.44,0-.7-.07-1.3-.1-1.82a5.79,5.79,0,0,1,0-.62s0,.26.07.7.11,1.15.18,1.86c.15,1.58.37,3.76.57,6.3l-.27-.08c.77-1,1.61-2.1,2.47-3.24l.05,0h.21l4-.16-.08.27c-2.08-1.57-3.85-2.95-5.13-3.95l-1.51-1.18C163.72,198.53,163.52,198.37,163.51,198.35Z" style="fill: rgb(38, 50, 56); transform-origin: 167.365px 202.955px;" id="elysr8as86md" class="animable"></path><path d="M138,236.94c-.06-.06,2.7-3,6.16-6.56s6.33-6.41,6.39-6.35-2.7,3-6.16,6.57S138,237,138,236.94Z" style="fill: rgb(38, 50, 56); transform-origin: 144.275px 230.485px;" id="elztdotrvdrda" class="animable"></path><path d="M176.41,230.4a14.8,14.8,0,0,0-.3-2,8.25,8.25,0,0,0-2.89-4.46,7.76,7.76,0,0,0-11.2,1.69,8.26,8.26,0,0,0,0,9.49,7.82,7.82,0,0,0,7.85,3.24,7.91,7.91,0,0,0,3.35-1.54,8.27,8.27,0,0,0,2.89-4.47,15.08,15.08,0,0,0,.3-2,6.71,6.71,0,0,1-.18,2,8.28,8.28,0,0,1-2.87,4.61,7.9,7.9,0,0,1-7.79,1.26,8.05,8.05,0,0,1-3.8-3,8.55,8.55,0,0,1,0-9.85,8.12,8.12,0,0,1,3.8-2.95,8,8,0,0,1,4.35-.36,8.2,8.2,0,0,1,3.44,1.62,8.31,8.31,0,0,1,2.87,4.61A6.77,6.77,0,0,1,176.41,230.4Z" style="fill: rgb(38, 50, 56); transform-origin: 168.318px 230.322px;" id="elcwjfw8ibsoi" class="animable"></path><path d="M169.24,251.5l.2.14c.16.15.35.3.57.48l2.18,1.87.07.07-.06.07-9.3,10.69,0,0h-.05l-1.12.17-2,.3-.22,0,0-.22c.26-1.27.5-2.5.73-3.67v0l0,0c2.52-3,4.72-5.5,6.32-7.26a16.39,16.39,0,0,1,2.67-2.67l-.19.18c-.11.12-.29.29-.5.53-.44.48-1.06,1.19-1.84,2.09-1.56,1.79-3.73,4.34-6.23,7.32l0-.07c-.22,1.17-.46,2.4-.71,3.67l-.18-.18,2-.31,1.12-.17-.1.05,9.4-10.61v.13L170,252.22l-.55-.52Z" style="fill: rgb(38, 50, 56); transform-origin: 165.885px 258.38px;" id="ely2m31kuknp8" class="animable"></path><path d="M149,264.45s0-.09,0-.26l0-.73c0-.7,0-1.61,0-2.73,0-2.4,0-5.71-.06-9.64l.13.14-13,0s.29-.3.15-.15h0v7c0,2.24,0,4.35,0,6.29l-.13-.13,9.37.07,2.65,0,.71,0H149s-.07,0-.22,0l-.68,0-2.62,0-9.46.07h-.14v-.14c0-1.94,0-4.05,0-6.29,0-1.12,0-2.28,0-3.46v-3.58h0c-.14.13.19-.2.16-.16l13,0h.14v.13c0,4-.06,7.3-.07,9.73,0,1.11,0,2,0,2.7v.7C149,264.38,149,264.46,149,264.45Z" style="fill: rgb(38, 50, 56); transform-origin: 142.513px 257.599px;" id="el82uhnhnqyug" class="animable"></path><path d="M138,251.09a12.38,12.38,0,0,1-2.81.16,12.43,12.43,0,0,1-2.82-.16,13.6,13.6,0,0,1,2.82-.15A13.54,13.54,0,0,1,138,251.09Z" style="fill: rgb(38, 50, 56); transform-origin: 135.185px 251.096px;" id="el3ni3l3fjprw" class="animable"></path><path d="M136,253.66a31.48,31.48,0,0,1,0-6.34,33.57,33.57,0,0,1,0,6.34Z" style="fill: rgb(38, 50, 56); transform-origin: 135.995px 250.49px;" id="eljeba9z2ah0o" class="animable"></path><rect x="40.62" y="208.66" width="73.33" height="73.33" style="fill: rgb(245, 245, 245); transform-origin: 77.285px 245.325px;" id="el4iaecy8o8e8" class="animable"></rect><g id="elvdbig9fi8k"><circle cx="130.97" cy="310.84" r="13.74" style="fill: rgb(224, 224, 224); transform-origin: 130.97px 310.84px; transform: rotate(-45deg);" class="animable" id="elg50ooeibkqm"></circle></g><g id="elzrqa41trxpj"><circle cx="132.31" cy="305.34" r="12.02" style="fill: rgb(250, 250, 250); transform-origin: 132.31px 305.34px; transform: rotate(-45deg);" class="animable" id="el5p3xhngvtti"></circle></g><circle cx="132.31" cy="305.34" r="11.58" style="fill: #7D3E90; transform-origin: 132.31px 305.34px;" id="el0n6opy73gax" class="animable"></circle><path d="M132.31,314.21a8.87,8.87,0,1,1,8.87-8.87A8.88,8.88,0,0,1,132.31,314.21Zm0-17.69a8.82,8.82,0,1,0,8.82,8.82A8.83,8.83,0,0,0,132.31,296.52Z" style="fill: rgb(38, 50, 56); transform-origin: 132.31px 305.34px;" id="elp7goblka6xb" class="animable"></path><g id="el2twbh3hl4xk"><g style="opacity: 0.2; transform-origin: 131.939px 302.828px;" class="animable" id="eli4kjuof5rc"><path d="M133.25,297.24a5.74,5.74,0,1,0,4.4,6.16,5.24,5.24,0,0,0-.81-3.39c-1-1.49-1.82-2.38-3.59-2.77" id="elb7ozvfy4vla" class="animable" style="transform-origin: 131.939px 302.828px;"></path></g></g><polygon points="130.14 312.82 130.8 313.72 134.33 313.61 135.01 312.82 130.14 312.82" style="fill: rgb(38, 50, 56); transform-origin: 132.575px 313.27px;" id="elxw4wuag2rx8" class="animable"></polygon><circle cx="366.72" cy="312.45" r="7.34" style="fill: rgb(38, 50, 56); transform-origin: 366.72px 312.45px;" id="elpn90cj3ix6" class="animable"></circle><path d="M369.4,312.45a2.68,2.68,0,1,1-2.68-2.68A2.68,2.68,0,0,1,369.4,312.45Z" style="fill: rgb(69, 90, 100); transform-origin: 366.72px 312.45px;" id="eleoi9yz6rj48" class="animable"></path><path d="M98,292.34c0-.13.64-.24,1.43-.24s1.42.11,1.42.24-.64.25-1.42.25S98,292.48,98,292.34Z" style="fill: rgb(38, 50, 56); transform-origin: 99.425px 292.345px;" id="elolesbgdtvek" class="animable"></path><path d="M92.34,292.34c0-.13.64-.24,1.42-.24s1.42.11,1.42.24-.63.25-1.42.25S92.34,292.48,92.34,292.34Z" style="fill: rgb(38, 50, 56); transform-origin: 93.76px 292.345px;" id="elzxno0qdd42g" class="animable"></path><path d="M86.66,292.34c0-.13.64-.24,1.42-.24s1.42.11,1.42.24-.63.25-1.42.25S86.66,292.48,86.66,292.34Z" style="fill: rgb(38, 50, 56); transform-origin: 88.08px 292.345px;" id="elqahcom28gq" class="animable"></path><path d="M81,292.34c0-.13.64-.24,1.42-.24s1.42.11,1.42.24-.64.25-1.42.25S81,292.48,81,292.34Z" style="fill: rgb(38, 50, 56); transform-origin: 82.42px 292.345px;" id="elwlrk1x74a5o" class="animable"></path><path d="M75.3,292.34c0-.13.63-.24,1.42-.24s1.42.11,1.42.24-.64.25-1.42.25S75.3,292.48,75.3,292.34Z" style="fill: rgb(38, 50, 56); transform-origin: 76.72px 292.345px;" id="eloilewjrr3zk" class="animable"></path><path d="M69.62,292.34c0-.13.63-.24,1.42-.24s1.42.11,1.42.24-.64.25-1.42.25S69.62,292.48,69.62,292.34Z" style="fill: rgb(38, 50, 56); transform-origin: 71.04px 292.345px;" id="el00iasthpur6ta" class="animable"></path><path d="M63.93,292.34c0-.13.64-.24,1.42-.24s1.43.11,1.43.24-.64.25-1.43.25S63.93,292.48,63.93,292.34Z" style="fill: rgb(38, 50, 56); transform-origin: 65.355px 292.345px;" id="el10fr6zw5far" class="animable"></path><path d="M58.25,292.34c0-.13.64-.24,1.42-.24s1.42.11,1.42.24-.63.25-1.42.25S58.25,292.48,58.25,292.34Z" style="fill: rgb(38, 50, 56); transform-origin: 59.67px 292.345px;" id="ela3f39r0d7gj" class="animable"></path><path d="M52.57,292.34c0-.13.64-.24,1.42-.24s1.42.11,1.42.24-.63.25-1.42.25S52.57,292.48,52.57,292.34Z" style="fill: rgb(38, 50, 56); transform-origin: 53.99px 292.345px;" id="el3nrd2gtuq8r" class="animable"></path><path d="M46.89,292.34c0-.13.64-.24,1.42-.24s1.42.11,1.42.24-.64.25-1.42.25S46.89,292.48,46.89,292.34Z" style="fill: rgb(38, 50, 56); transform-origin: 48.31px 292.345px;" id="el8t754vpk1gu" class="animable"></path><path d="M41.21,292.34c0-.13.63-.24,1.42-.24s1.42.11,1.42.24-.64.25-1.42.25S41.21,292.48,41.21,292.34Z" style="fill: rgb(38, 50, 56); transform-origin: 42.63px 292.345px;" id="el6lgpikuwf8g" class="animable"></path><path d="M35.53,292.34c0-.13.63-.24,1.42-.24s1.42.11,1.42.24-.64.25-1.42.25S35.53,292.48,35.53,292.34Z" style="fill: rgb(38, 50, 56); transform-origin: 36.95px 292.345px;" id="el9tx1750jfev" class="animable"></path><path d="M31.48,290.71c.13,0,.24.64.24,1.42v.21l-.24-.24c.68,0,1.2.12,1.2.24s-.52.23-1.2.25h-.24v-.46C31.23,291.35,31.34,290.71,31.48,290.71Z" style="fill: rgb(38, 50, 56); transform-origin: 31.9597px 291.65px;" id="elzc02u1emdxp" class="animable"></path><path d="M31.48,285c.13,0,.24.64.24,1.42s-.11,1.42-.24,1.42-.25-.64-.25-1.42S31.34,285,31.48,285Z" style="fill: rgb(38, 50, 56); transform-origin: 31.475px 286.42px;" id="eld6wzkqyb3au" class="animable"></path><path d="M31.48,279.35c.13,0,.24.63.24,1.42s-.11,1.42-.24,1.42-.25-.64-.25-1.42S31.34,279.35,31.48,279.35Z" style="fill: rgb(38, 50, 56); transform-origin: 31.475px 280.77px;" id="ela5nigztbnok" class="animable"></path><path d="M31.48,273.67c.13,0,.24.63.24,1.42s-.11,1.42-.24,1.42-.25-.64-.25-1.42S31.34,273.67,31.48,273.67Z" style="fill: rgb(38, 50, 56); transform-origin: 31.475px 275.09px;" id="eldcgf5kx28pp" class="animable"></path><path d="M31.48,268c.13,0,.24.64.24,1.42s-.11,1.43-.24,1.43-.25-.64-.25-1.43S31.34,268,31.48,268Z" style="fill: rgb(38, 50, 56); transform-origin: 31.475px 269.425px;" id="elr999hzm28rn" class="animable"></path><path d="M31.48,262.3c.13,0,.24.64.24,1.42s-.11,1.42-.24,1.42-.25-.63-.25-1.42S31.34,262.3,31.48,262.3Z" style="fill: rgb(38, 50, 56); transform-origin: 31.475px 263.72px;" id="elwevqyj43l7k" class="animable"></path><path d="M31.48,256.62c.13,0,.24.64.24,1.42s-.11,1.42-.24,1.42-.25-.63-.25-1.42S31.34,256.62,31.48,256.62Z" style="fill: rgb(38, 50, 56); transform-origin: 31.475px 258.04px;" id="elr77zqj24paq" class="animable"></path><path d="M31.48,250.94c.13,0,.24.64.24,1.42s-.11,1.42-.24,1.42-.25-.64-.25-1.42S31.34,250.94,31.48,250.94Z" style="fill: rgb(38, 50, 56); transform-origin: 31.475px 252.36px;" id="el0237hfz7kq7a" class="animable"></path><path d="M31.48,245.26c.13,0,.24.63.24,1.42s-.11,1.42-.24,1.42-.25-.64-.25-1.42S31.34,245.26,31.48,245.26Z" style="fill: rgb(38, 50, 56); transform-origin: 31.475px 246.68px;" id="elzkhu6nsis2b" class="animable"></path><path d="M31.48,239.58c.13,0,.24.63.24,1.42s-.11,1.42-.24,1.42-.25-.64-.25-1.42S31.34,239.58,31.48,239.58Z" style="fill: rgb(38, 50, 56); transform-origin: 31.475px 241px;" id="elnmaiyujjxge" class="animable"></path><path d="M31.48,233.89c.13,0,.24.64.24,1.42s-.11,1.42-.24,1.42-.25-.63-.25-1.42S31.34,233.89,31.48,233.89Z" style="fill: rgb(38, 50, 56); transform-origin: 31.475px 235.31px;" id="el3rkeevedd3z" class="animable"></path><path d="M31.48,228.21c.13,0,.24.64.24,1.42s-.11,1.42-.24,1.42-.25-.63-.25-1.42S31.34,228.21,31.48,228.21Z" style="fill: rgb(38, 50, 56); transform-origin: 31.475px 229.63px;" id="el4hb0po1yoyb" class="animable"></path><path d="M31.9,223c0,.06-.16.13-.42.17l.17-.17a5.45,5.45,0,0,1,.07,1c0,.79-.11,1.42-.24,1.42s-.25-.63-.25-1.42a6.54,6.54,0,0,1,.07-1l0-.2.14,0C31.74,222.83,31.9,222.89,31.9,223Z" style="fill: rgb(38, 50, 56); transform-origin: 31.5649px 224.11px;" id="elqhmc2u4pnh" class="animable"></path><path d="M37.58,223c0,.13-.63.24-1.42.24s-1.42-.11-1.42-.24.64-.25,1.42-.25S37.58,222.82,37.58,223Z" style="fill: rgb(38, 50, 56); transform-origin: 36.16px 222.995px;" id="eluob2aixyi5d" class="animable"></path><path d="M43.27,223c0,.13-.64.24-1.42.24s-1.42-.11-1.42-.24.63-.25,1.42-.25S43.27,222.82,43.27,223Z" style="fill: rgb(38, 50, 56); transform-origin: 41.85px 222.995px;" id="eljwquo72hcup" class="animable"></path><path d="M49,223c0,.13-.64.24-1.42.24s-1.42-.11-1.42-.24.63-.25,1.42-.25S49,222.82,49,223Z" style="fill: rgb(38, 50, 56); transform-origin: 47.58px 222.995px;" id="elt7oqllcyo8i" class="animable"></path><path d="M54.63,223c0,.13-.64.24-1.42.24s-1.42-.11-1.42-.24.63-.25,1.42-.25S54.63,222.82,54.63,223Z" style="fill: rgb(38, 50, 56); transform-origin: 53.21px 222.995px;" id="el7b6bdofc0f3" class="animable"></path><path d="M60.31,223c0,.13-.63.24-1.42.24s-1.42-.11-1.42-.24.64-.25,1.42-.25S60.31,222.82,60.31,223Z" style="fill: rgb(38, 50, 56); transform-origin: 58.89px 222.995px;" id="el8xp3zjmdind" class="animable"></path><path d="M66,223c0,.13-.63.24-1.42.24s-1.42-.11-1.42-.24.64-.25,1.42-.25S66,222.82,66,223Z" style="fill: rgb(38, 50, 56); transform-origin: 64.58px 222.995px;" id="el2cu5mr61rcx" class="animable"></path><path d="M71.67,223c0,.13-.63.24-1.42.24s-1.42-.11-1.42-.24.64-.25,1.42-.25S71.67,222.82,71.67,223Z" style="fill: rgb(38, 50, 56); transform-origin: 70.25px 222.995px;" id="elf6o9cbracsh" class="animable"></path><path d="M77.36,223c0,.13-.64.24-1.42.24s-1.42-.11-1.42-.24.63-.25,1.42-.25S77.36,222.82,77.36,223Z" style="fill: rgb(38, 50, 56); transform-origin: 75.94px 222.995px;" id="els9mlu22mjc" class="animable"></path><path d="M83,223c0,.13-.64.24-1.42.24s-1.42-.11-1.42-.24.63-.25,1.42-.25S83,222.82,83,223Z" style="fill: rgb(38, 50, 56); transform-origin: 81.58px 222.995px;" id="elhpyx40i2p9" class="animable"></path><path d="M88.72,223c0,.13-.64.24-1.42.24s-1.42-.11-1.42-.24.63-.25,1.42-.25S88.72,222.82,88.72,223Z" style="fill: rgb(38, 50, 56); transform-origin: 87.3px 222.995px;" id="elbu428ldhkh7" class="animable"></path><path d="M94.4,223c0,.13-.63.24-1.42.24s-1.42-.11-1.42-.24.64-.25,1.42-.25S94.4,222.82,94.4,223Z" style="fill: rgb(38, 50, 56); transform-origin: 92.98px 222.995px;" id="elw5pbeq4d54" class="animable"></path><path d="M100.08,223c0,.13-.63.24-1.42.24s-1.42-.11-1.42-.24.64-.25,1.42-.25S100.08,222.82,100.08,223Z" style="fill: rgb(38, 50, 56); transform-origin: 98.66px 222.995px;" id="elg42bg4vgkpd" class="animable"></path><path d="M100.87,227.86c-.14,0-.25-.64-.25-1.42s.11-1.43.25-1.43.24.64.24,1.43S101,227.86,100.87,227.86Z" style="fill: rgb(38, 50, 56); transform-origin: 100.865px 226.435px;" id="ellb35vim27gg" class="animable"></path><path d="M100.87,233.54c-.14,0-.25-.64-.25-1.42s.11-1.42.25-1.42.24.63.24,1.42S101,233.54,100.87,233.54Z" style="fill: rgb(38, 50, 56); transform-origin: 100.865px 232.12px;" id="el7ijzn2wx1ds" class="animable"></path><path d="M100.87,239.22c-.14,0-.25-.64-.25-1.42s.11-1.42.25-1.42.24.63.24,1.42S101,239.22,100.87,239.22Z" style="fill: rgb(38, 50, 56); transform-origin: 100.865px 237.8px;" id="el7jyw2a0yk7y" class="animable"></path><path d="M100.87,244.9c-.14,0-.25-.64-.25-1.42s.11-1.42.25-1.42.24.64.24,1.42S101,244.9,100.87,244.9Z" style="fill: rgb(38, 50, 56); transform-origin: 100.865px 243.48px;" id="elyg49e3ar2" class="animable"></path><path d="M100.87,250.58c-.14,0-.25-.63-.25-1.42s.11-1.42.25-1.42.24.64.24,1.42S101,250.58,100.87,250.58Z" style="fill: rgb(38, 50, 56); transform-origin: 100.865px 249.16px;" id="el7ug1zgasht5" class="animable"></path><path d="M100.87,256.26c-.14,0-.25-.63-.25-1.42s.11-1.42.25-1.42.24.64.24,1.42S101,256.26,100.87,256.26Z" style="fill: rgb(38, 50, 56); transform-origin: 100.865px 254.84px;" id="elq2ox0b1wu7" class="animable"></path><path d="M100.87,262c-.14,0-.25-.64-.25-1.42s.11-1.42.25-1.42.24.63.24,1.42S101,262,100.87,262Z" style="fill: rgb(38, 50, 56); transform-origin: 100.865px 260.58px;" id="el8te4h8q20o4" class="animable"></path><path d="M100.87,267.63c-.14,0-.25-.64-.25-1.42s.11-1.42.25-1.42.24.63.24,1.42S101,267.63,100.87,267.63Z" style="fill: rgb(38, 50, 56); transform-origin: 100.865px 266.21px;" id="el1i66w86wlpm" class="animable"></path><path d="M100.87,273.31c-.14,0-.25-.64-.25-1.42s.11-1.42.25-1.42.24.63.24,1.42S101,273.31,100.87,273.31Z" style="fill: rgb(38, 50, 56); transform-origin: 100.865px 271.89px;" id="ellg95czbx0dr" class="animable"></path><path d="M100.87,279c-.14,0-.25-.63-.25-1.42s.11-1.42.25-1.42.24.64.24,1.42S101,279,100.87,279Z" style="fill: rgb(38, 50, 56); transform-origin: 100.865px 277.58px;" id="ele40qzbatvg" class="animable"></path><path d="M100.87,284.67c-.14,0-.25-.63-.25-1.42s.11-1.42.25-1.42.24.64.24,1.42S101,284.67,100.87,284.67Z" style="fill: rgb(38, 50, 56); transform-origin: 100.865px 283.25px;" id="elachxtzkp09m" class="animable"></path><path d="M100.87,290.35c-.14,0-.25-.63-.25-1.42s.11-1.42.25-1.42.24.64.24,1.42S101,290.35,100.87,290.35Z" style="fill: rgb(38, 50, 56); transform-origin: 100.865px 288.93px;" id="eliorlj8cqte" class="animable"></path><rect x="98.3" y="289.07" width="5.14" height="5.14" style="fill: rgb(38, 50, 56); transform-origin: 100.87px 291.64px;" id="elpfzr87x77gh" class="animable"></rect><rect x="28.91" y="289.78" width="5.14" height="5.14" style="fill: rgb(38, 50, 56); transform-origin: 31.48px 292.35px;" id="eltkgn4qh7rxm" class="animable"></rect><rect x="98.3" y="219.89" width="5.14" height="5.14" style="fill: rgb(38, 50, 56); transform-origin: 100.87px 222.46px;" id="el4cxxwi30e4o" class="animable"></rect><rect x="28.91" y="220.39" width="5.14" height="5.14" style="fill: rgb(38, 50, 56); transform-origin: 31.48px 222.96px;" id="el0tr5g6b6n5o" class="animable"></rect></g><defs>     <filter id="active" height="200%">         <feMorphology in="SourceAlpha" result="DILATED" operator="dilate" radius="2"></feMorphology>                <feFlood flood-color="#32DFEC" flood-opacity="1" result="PINK"></feFlood>        <feComposite in="PINK" in2="DILATED" operator="in" result="OUTLINE"></feComposite>        <feMerge>            <feMergeNode in="OUTLINE"></feMergeNode>            <feMergeNode in="SourceGraphic"></feMergeNode>        </feMerge>    </filter>    <filter id="hover" height="200%">        <feMorphology in="SourceAlpha" result="DILATED" operator="dilate" radius="2"></feMorphology>                <feFlood flood-color="#ff0000" flood-opacity="0.5" result="PINK"></feFlood>        <feComposite in="PINK" in2="DILATED" operator="in" result="OUTLINE"></feComposite>        <feMerge>            <feMergeNode in="OUTLINE"></feMergeNode>            <feMergeNode in="SourceGraphic"></feMergeNode>        </feMerge>            <feColorMatrix type="matrix" values="0   0   0   0   0                0   1   0   0   0                0   0   0   0   0                0   0   0   1   0 "></feColorMatrix>    </filter></defs></svg>